<svg width="62" height="57" viewBox="0 0 62 57" fill="none" xmlns="http://www.w3.org/2000/svg">
<path fill-rule="evenodd" clip-rule="evenodd" d="M24.0628 1C19.8615 1 16.4115 4.45157 16.4115 8.65828C16.4115 8.83273 16.4181 9.00639 16.43 9.17911H7.05089C3.72893 9.17911 1 11.9082 1 15.2302V30.3763C1 32.09 1.72687 33.6439 2.88639 34.747V49.2613C2.88639 52.9629 5.92351 56 9.62517 56H52.1618C55.8635 56 58.9006 52.9629 58.9006 49.2613V34.747C60.0601 33.6439 60.787 32.09 60.787 30.3763V15.2302C60.787 11.9082 58.0581 9.17911 54.7361 9.17911H45.357C45.3689 9.00639 45.3755 8.83273 45.3755 8.65828C45.3755 4.45157 41.9256 1 37.7242 1H24.0628ZM24.0628 3.71738H37.7242C40.4421 3.71738 42.6581 5.93211 42.6581 8.65828C42.6581 8.83292 42.6482 9.00671 42.6297 9.17911H19.1573C19.1388 9.00671 19.1289 8.83292 19.1289 8.65828C19.1289 5.93211 21.3449 3.71738 24.0628 3.71738ZM7.05089 11.8964H54.7361C56.5763 11.8964 58.0696 13.39 58.0696 15.2302V30.3763C58.0696 32.2166 56.5787 33.703 54.7361 33.703H36.0794V31.2479C36.0794 29.7658 34.8559 28.5273 33.3657 28.5273H28.4213C26.9311 28.5273 25.7008 29.7576 25.7008 31.2479V33.703H7.05089C5.2083 33.703 3.71737 32.2166 3.71737 30.3763V15.2302C3.71737 13.39 5.21069 11.8964 7.05089 11.8964ZM28.4167 31.2432C28.4165 31.2433 28.4174 31.2432 28.4214 31.2432H33.3631C33.3629 31.2432 33.3623 31.2432 33.3623 31.25V38.8844C33.3623 38.8844 33.3629 38.8844 33.3631 38.8844H28.4214C28.4133 38.8844 28.418 38.8912 28.418 38.8844V31.25C28.418 31.2432 28.4168 31.2432 28.4167 31.2432ZM5.60377 36.2433C6.06814 36.3587 6.55279 36.4204 7.05089 36.4204H25.7008V38.8824C25.7008 40.3726 26.9311 41.6029 28.4213 41.6029H33.3657C34.8559 41.6029 36.0794 40.3643 36.0794 38.8824V36.4204H54.7361C55.2342 36.4204 55.7189 36.3586 56.1832 36.2433V49.2613C56.1832 51.4845 54.3851 53.2827 52.1618 53.2827H9.62517C7.40193 53.2827 5.60377 51.4845 5.60377 49.2613V36.2433Z" fill="#CC0514" stroke="white" stroke-width="1.5" stroke-linejoin="round"/>
</svg>
