<svg width="18" height="22" viewBox="0 0 18 22" fill="none" xmlns="http://www.w3.org/2000/svg">
<path d="M16.4565 20H3.49298C2.6683 20 1.99719 19.327 1.99719 18.5C1.99719 17.673 2.6683 17 3.49298 17H15.4593C15.7345 17 15.9579 16.776 15.9579 16.5V3.5C15.9579 2.121 14.839 1 13.4649 1H3.49298C2.11885 1 1 2.121 1 3.5V18.5C1 19.879 2.11885 21 3.49298 21H16.4565C16.7317 21 16.9551 20.776 16.9551 20.5C16.9551 20.224 16.7317 20 16.4565 20ZM1.99719 3.5C1.99719 2.673 2.6683 2 3.49298 2H13.4649C14.2896 2 14.9607 2.673 14.9607 3.5V16H3.49298C2.93256 16 2.41402 16.187 1.99719 16.501V3.5Z" fill="#BDBDBD" stroke="#BDBDBD" stroke-width="0.5"/>
<path d="M4.49029 6.00049H12.4678C12.743 6.00049 12.9664 5.77649 12.9664 5.50049C12.9664 5.22449 12.743 5.00049 12.4678 5.00049H4.49029C4.21507 5.00049 3.9917 5.22449 3.9917 5.50049C3.9917 5.77649 4.21507 6.00049 4.49029 6.00049Z" fill="#BDBDBD" stroke="#BDBDBD" stroke-width="0.5"/>
<path d="M11.4705 8.00049H5.48737C5.21214 8.00049 4.98877 8.22449 4.98877 8.50049C4.98877 8.77649 5.21214 9.00049 5.48737 9.00049H11.4705C11.7457 9.00049 11.9691 8.77649 11.9691 8.50049C11.9691 8.22449 11.7457 8.00049 11.4705 8.00049Z" fill="#BDBDBD" stroke="#BDBDBD" stroke-width="0.5"/>
</svg>
