<svg width="60" height="63" viewBox="0 0 60 63" fill="none" xmlns="http://www.w3.org/2000/svg">
<path d="M53.2567 62.3641H6.74306C6.21575 62.3641 5.78906 61.9374 5.78906 61.4101V28.6278C5.78906 28.1005 6.21575 27.6738 6.74306 27.6738H53.2567C53.784 27.6738 54.2107 28.1005 54.2107 28.6278V61.4101C54.2107 61.9374 53.784 62.3641 53.2567 62.3641ZM7.69705 60.4562H52.3027V29.5818H7.69705V60.4562Z" fill="#CC0514"/>
<path d="M59.046 29.5818H0.953993C0.426688 29.5818 0 29.1551 0 28.6278V14.6644C0 14.1371 0.426688 13.7104 0.953993 13.7104H59.046C59.5733 13.7104 60 14.1371 60 14.6644V28.6278C60 29.1551 59.5733 29.5818 59.046 29.5818ZM1.90799 27.6738H58.092V15.6184H1.90799V27.6738Z" fill="#CC0514"/>
<path d="M35.8799 15.5223C32.9984 15.5223 30.4401 15.2782 29.9026 15.2241C29.6175 15.1953 29.3604 15.0387 29.2029 14.7993C29.0445 14.5599 29.0036 14.2618 29.0893 13.9879C29.4284 12.9146 32.4935 3.43617 35.7868 1.26919C37.5019 0.140984 39.5543 -0.25496 41.5629 0.16148C43.5724 0.576057 45.3006 1.74898 46.4288 3.46319C47.558 5.1774 47.9511 7.22885 47.5365 9.23932C47.122 11.2498 45.949 12.978 44.2348 14.1062C42.5197 15.2344 39.0093 15.5223 35.8799 15.5223ZM31.2851 13.4289C34.7229 13.6879 41.1427 13.8556 43.1858 12.5131C44.4752 11.6644 45.3565 10.3657 45.6677 8.85455C45.9798 7.34344 45.6835 5.80066 44.8357 4.51221C43.987 3.22283 42.6883 2.3415 41.1772 2.03034C39.6661 1.71917 38.1242 2.0145 36.8358 2.86229C34.7927 4.20663 32.4087 10.1691 31.2851 13.4289ZM36.3113 2.06574H36.3206H36.3113Z" fill="#CC0514"/>
<path d="M24.1192 15.5225C20.9899 15.5225 17.4804 15.2346 15.7653 14.1064C14.0511 12.9782 12.8782 11.25 12.4636 9.23955C12.049 7.23001 12.4421 5.17856 13.5704 3.46342C15.8994 -0.0749263 20.6722 -1.06339 24.2133 1.26942C27.5067 3.4364 30.5708 12.9148 30.9099 13.9881C30.9956 14.262 30.9546 14.5601 30.7963 14.7995C30.6388 15.039 30.3817 15.1955 30.0966 15.2244C29.5591 15.2784 27.0008 15.5225 24.1192 15.5225ZM19.9977 1.91318C18.1177 1.91318 16.273 2.82804 15.1634 4.51244C14.3157 5.80089 14.0203 7.34367 14.3324 8.85478C14.6436 10.3659 15.5249 11.6646 16.8143 12.5133C18.8574 13.8567 25.2773 13.6881 28.7141 13.4291C27.5905 10.1693 25.2074 4.20686 23.1643 2.86251C22.1889 2.22062 21.0877 1.91318 19.9977 1.91318Z" fill="#CC0514"/>
<path d="M35.1292 62.3641H24.871C24.3437 62.3641 23.917 61.9374 23.917 61.4101V14.6644C23.917 14.1371 24.3437 13.7104 24.871 13.7104H35.1292C35.6565 13.7104 36.0832 14.1371 36.0832 14.6644V61.4101C36.0832 61.9374 35.6565 62.3641 35.1292 62.3641ZM25.825 60.4561H34.1752V15.6184H25.825V60.4561Z" fill="#CC0514"/>
</svg>
