<svg width="53" height="52" viewBox="0 0 53 52" fill="none" xmlns="http://www.w3.org/2000/svg">
<path d="M38.5226 20.2919C38.1686 19.9379 37.6377 19.9379 37.2837 20.2919L32.3279 25.2476C31.5315 24.7166 30.735 24.4511 29.7616 24.4511C28.5226 24.4511 27.3722 24.9821 26.4872 25.8671C25.6023 26.752 25.0713 27.9025 25.0713 29.1414C25.0713 30.3804 25.6023 31.5308 26.4872 32.4157C27.3722 33.3007 28.5226 33.8317 29.7616 33.8317C31.0005 33.8317 32.1509 33.3007 33.0359 32.4157C33.9208 31.5308 34.4518 30.3804 34.4518 29.1414C34.4518 28.168 34.1863 27.1945 33.5669 26.4865L38.4341 21.6193C38.8766 21.1768 38.8766 20.6458 38.5226 20.2919ZM31.8854 31.1768C30.8235 32.2388 28.8766 32.2388 27.7262 31.1768C27.1952 30.6458 26.8412 29.8494 26.8412 29.1414C26.8412 28.345 27.1067 27.637 27.7262 27.106C28.7881 26.0441 30.735 26.0441 31.8854 27.106C32.4164 27.637 32.7704 28.4334 32.7704 29.1414C32.6819 29.9379 32.4164 30.6458 31.8854 31.1768Z" fill="#CC0514" stroke="#F9F9F9" stroke-width="0.25"/>
<path d="M4.7168 28.3449C4.7168 28.8759 5.07078 29.2299 5.60175 29.2299H20.9115C21.4425 29.2299 21.7964 28.8759 21.7964 28.3449C21.7964 27.8139 21.4425 27.46 20.9115 27.46H5.60175C5.07078 27.46 4.7168 27.8139 4.7168 28.3449Z" fill="#CC0514" stroke="#F9F9F9" stroke-width="0.25"/>
<path d="M1.88496 21.7963H17.1947C17.7257 21.7963 18.0796 21.4423 18.0796 20.9113C18.0796 20.3803 17.7257 20.0264 17.1947 20.0264H1.88496C1.35398 20.0264 1 20.3803 1 20.9113C1 21.4423 1.35398 21.7963 1.88496 21.7963Z" fill="#CC0514" stroke="#F9F9F9" stroke-width="0.25"/>
<path d="M18.0796 35.7785C18.0796 35.2475 17.7257 34.8936 17.1947 34.8936H1.88496C1.35398 34.8936 1 35.2475 1 35.7785C1 36.3095 1.35398 36.6635 1.88496 36.6635H17.1947C17.7257 36.6635 18.0796 36.3095 18.0796 35.7785Z" fill="#CC0514" stroke="#F9F9F9" stroke-width="0.25"/>
<path d="M46.0447 13.2124L46.9296 12.3274C47.3721 12.5929 47.8146 12.6814 48.3455 12.6814C50.027 12.6814 51.3544 11.354 51.3544 9.67257C51.3544 7.99115 50.1154 6.66372 48.434 6.66372C46.7526 6.66372 45.4252 7.99115 45.4252 9.67257C45.4252 10.115 45.5137 10.646 45.7792 11L44.8057 11.9735C41.0889 8.69911 36.3101 6.66372 31.0004 6.48672V2.76991H34.1862C34.7172 2.76991 35.0712 2.41593 35.0712 1.88496C35.0712 1.35398 34.7172 1 34.1862 1H26.1331C25.6022 1 25.2482 1.35398 25.2482 1.88496C25.2482 2.41593 25.6022 2.76991 26.1331 2.76991H29.2305V6.48672C23.3898 6.75221 17.9916 9.14159 13.9208 13.4779C13.5668 13.8319 13.5668 14.3628 13.9208 14.7168C14.2747 15.0708 14.8057 15.0708 15.1597 14.7168C19.142 10.5575 24.4517 8.25664 30.1154 8.25664C35.5137 8.25664 40.4694 10.3805 44.1862 13.8319C48.1685 17.5487 50.6464 22.8584 50.6464 28.6991C50.6464 40.0266 41.4429 49.2301 30.1154 49.2301C24.6287 49.2301 19.496 47.1062 15.6022 43.2124C15.2482 42.8584 14.7172 42.8584 14.3632 43.2124C14.0093 43.5664 14.0093 44.0973 14.3632 44.4513C18.611 48.6991 24.1862 51 30.1154 51C42.4163 51 52.4163 41 52.4163 28.6991C52.4163 22.6814 50.027 17.1947 46.0447 13.2124ZM48.434 8.43363C49.142 8.43363 49.673 8.9646 49.673 9.67257C49.673 10.3805 49.142 10.9115 48.434 10.9115C48.1685 10.9115 47.9031 10.823 47.6376 10.646C47.6376 10.5575 47.5491 10.5575 47.5491 10.469C47.5491 10.469 47.4606 10.3805 47.3721 10.3805C47.1951 10.2035 47.1951 9.93805 47.1951 9.67257C47.1951 8.9646 47.7261 8.43363 48.434 8.43363Z" fill="#CC0514" stroke="#F9F9F9" stroke-width="0.25"/>
<path d="M19.4072 42.8585C19.1417 43.301 19.2302 43.8319 19.6726 44.0974C22.77 46.2213 26.3983 47.3718 30.2036 47.3718C40.4691 47.3718 48.7877 39.0532 48.7877 28.7877C48.7877 18.5222 40.4691 10.2036 30.2036 10.2036C26.3098 10.2036 22.5045 11.4426 19.3187 13.7434C18.9647 14.0089 18.8762 14.6284 19.1417 14.9824C19.4072 15.3364 19.9381 15.4249 20.3806 15.1594C23.2125 13.0355 26.6638 11.9735 30.2036 11.9735C39.4957 11.9735 47.0178 19.4956 47.0178 28.7877C47.0178 38.0797 39.4957 45.6018 30.2036 45.6018C26.7523 45.6018 23.478 44.6284 20.7346 42.6815C20.2036 42.416 19.6726 42.5045 19.4072 42.8585Z" fill="#CC0514" stroke="#F9F9F9" stroke-width="0.25"/>
</svg>
