<svg width="17" height="17" viewBox="0 0 17 17" fill="none" xmlns="http://www.w3.org/2000/svg">
<path d="M8.49973 17C3.81281 17 0 13.1872 0 8.49973C0 3.81336 3.81281 0 8.49973 0C13.1866 0 16.9995 3.81336 16.9995 8.49973C17 13.1872 13.1866 17 8.49973 17ZM8.49973 0.971538C4.34866 0.971538 0.971538 4.34866 0.971538 8.49973C0.971538 12.6513 4.34866 16.0285 8.49973 16.0285C12.6508 16.0285 16.0279 12.6513 16.0279 8.49973C16.0285 4.34866 12.6513 0.971538 8.49973 0.971538Z" fill="#CC0514"/>
<path d="M11.1067 11.592C10.9819 11.592 10.8582 11.5449 10.7629 11.4497L8.15647 8.84324C8.06506 8.75184 8.01416 8.62868 8.01416 8.49951V2.98501C8.01416 2.71681 8.23146 2.49951 8.5002 2.49951C8.7684 2.49951 8.9857 2.71626 8.9857 2.98501V8.29864L11.4498 10.7628C11.6398 10.9527 11.6398 11.2603 11.4498 11.4497C11.3546 11.5449 11.2304 11.592 11.1067 11.592Z" fill="#CC0514"/>
</svg>
