<svg width="8" height="16" viewBox="0 0 8 16" fill="none" xmlns="http://www.w3.org/2000/svg">
<path d="M-4.76837e-07 16C1.05057 16 2.09086 15.7931 3.06147 15.391C4.03207 14.989 4.91399 14.3997 5.65685 13.6569C6.39972 12.914 6.989 12.0321 7.39104 11.0615C7.79307 10.0909 8 9.05058 8 8C8 6.94943 7.79307 5.90914 7.39104 4.93853C6.989 3.96793 6.39972 3.08601 5.65685 2.34315C4.91399 1.60028 4.03207 1.011 3.06147 0.608964C2.09086 0.206926 1.05057 -4.59221e-08 -4.76837e-07 0L0 8L-4.76837e-07 16Z" fill="#34C99C"/>
</svg>
