<svg width="16" height="15" viewBox="0 0 16 15" fill="none" xmlns="http://www.w3.org/2000/svg">
<path d="M5.62633 14.9201C5.70377 14.9679 5.79211 14.9952 5.88303 14.9994C5.97396 15.0036 6.06445 14.9846 6.14599 14.9442L9.36036 13.337C9.44712 13.2908 9.5195 13.2216 9.56958 13.1371C9.61966 13.0525 9.64551 12.9558 9.6443 12.8575V6.63501L14.8623 0.897348C14.9325 0.820592 14.9789 0.725053 14.9957 0.622392C15.0125 0.519732 14.9991 0.414393 14.9571 0.319235C14.915 0.224078 14.8462 0.143218 14.759 0.0865293C14.6717 0.0298403 14.5699 -0.000225971 14.4659 1.27875e-06H0.5369C0.43287 -0.000225971 0.331024 0.0298403 0.243796 0.0865293C0.156568 0.143218 0.0877325 0.224078 0.0456926 0.319235C0.00365282 0.414393 -0.00977229 0.519732 0.00705638 0.622392C0.0238851 0.725053 0.0702394 0.820592 0.14046 0.897348L5.35846 6.63501V14.4647C5.35995 14.5573 5.38541 14.6479 5.43236 14.7277C5.47931 14.8075 5.54613 14.8738 5.62633 14.9201ZM13.2551 1.07146L8.70141 6.06713L8.68266 6.09392C8.66868 6.10974 8.65613 6.12677 8.64516 6.14482C8.63644 6.15826 8.62925 6.17263 8.62373 6.18767C8.6136 6.20261 8.60549 6.21882 8.59963 6.23589C8.59306 6.25245 8.58769 6.26946 8.58355 6.28678C8.58355 6.30286 8.58355 6.31893 8.58355 6.335C8.58355 6.35107 8.58355 6.37518 8.58355 6.39393C8.58355 6.41268 8.57284 6.42875 8.57284 6.42875V12.5253L6.42992 13.5968V6.42875C6.42992 6.42875 6.42992 6.40464 6.42992 6.39393C6.42992 6.38322 6.42992 6.35643 6.42992 6.335C6.42992 6.31357 6.42992 6.30286 6.42992 6.28678C6.42579 6.26946 6.42042 6.25245 6.41385 6.23589C6.40783 6.21934 6.40067 6.20323 6.39242 6.18767L6.36831 6.14214L6.33349 6.0966C6.32569 6.08728 6.31853 6.07743 6.31206 6.06713L1.74765 1.07146H13.2551Z" fill="#CC0514"/>
</svg>
