<svg width="15" height="17" viewBox="0 0 15 17" fill="none" xmlns="http://www.w3.org/2000/svg">
<path d="M14.3678 17H9.77011C9.42529 17 9.1954 16.7735 9.1954 16.4338V11.3381H5.74713V16.4338C5.74713 16.7735 5.51724 17 5.17241 17H0.574713C0.229885 17 0 16.7735 0 16.4338V6.2423C0 6.07244 0.0574713 5.90258 0.229885 5.78934L7.12644 0.127394C7.35632 -0.0424646 7.64368 -0.0424646 7.87356 0.127394L14.7701 5.78934C14.8851 5.90258 15 6.07244 15 6.2423V16.4338C14.9425 16.7735 14.7126 17 14.3678 17ZM10.3448 15.8676H13.7931V6.5254L7.47126 1.3164L1.14943 6.5254V15.8676H4.5977V10.7719C4.5977 10.4321 4.82759 10.2057 5.17241 10.2057H9.77011C10.1149 10.2057 10.3448 10.4321 10.3448 10.7719V15.8676Z" fill="#CC0514"/>
</svg>
