<svg width="21" height="20" viewBox="0 0 21 20" fill="none" xmlns="http://www.w3.org/2000/svg">
<path d="M1.76119 13.3134H3.91045V15.5075L4.04478 15.6418C4.1791 15.7761 4.3806 15.8657 4.58209 15.8657C4.76119 15.8657 4.96269 15.7985 5.09701 15.6642L8.09701 13.3134H15.4627C15.8881 13.3134 16.2239 12.9776 16.2239 12.5522V1.76119C16.2239 1.33582 15.8881 1 15.4627 1H1.76119C1.33582 1 1 1.33582 1 1.76119V12.5522C1 12.9776 1.33582 13.3134 1.76119 13.3134ZM1.89552 1.89552H15.3284V12.4179H8.05224C7.85075 12.4179 7.67164 12.4851 7.53731 12.6194L4.80597 14.7463V12.6866L4.67164 12.5522C4.5597 12.4403 4.42537 12.3955 4.31343 12.3955C4.26866 12.3955 4.20149 12.3955 4.15672 12.4179H1.89552V1.89552Z" fill="#BDBDBD" stroke="#BDBDBD" stroke-width="0.4"/>
<path d="M19.7164 4.13428H17.4552C17.2089 4.13428 17.0074 4.33577 17.0074 4.58204C17.0074 4.82831 17.2089 5.0298 17.4552 5.0298H19.582V15.5522H17.2984C17.1417 15.5074 16.9626 15.5074 16.7835 15.6865L16.6716 15.8208V17.8805L13.9402 15.7537C13.8059 15.6194 13.6268 15.5522 13.4253 15.5522H8.25367C8.0074 15.5522 7.80591 15.7537 7.80591 15.9999C7.80591 16.2462 8.0074 16.4477 8.25367 16.4477H13.3805L16.4029 18.7985C16.5373 18.9328 16.7164 18.9999 16.8955 18.9999H16.9178C17.1193 18.9999 17.2984 18.9104 17.4552 18.7761L17.5895 18.6417V16.4477H19.7387C20.1641 16.4477 20.4999 16.1119 20.4999 15.6865V4.89547C20.4775 4.4701 20.1417 4.13428 19.7164 4.13428Z" fill="#BDBDBD" stroke="#BDBDBD" stroke-width="0.4"/>
</svg>
