<svg width="57" height="57" viewBox="0 0 57 57" fill="none" xmlns="http://www.w3.org/2000/svg">
<path d="M28.5 1C13.3355 1 1 13.3355 1 28.5C1 43.6645 13.3355 56 28.5 56C43.6645 56 56 43.6645 56 28.5C56 13.3355 43.6645 1 28.5 1ZM28.5 53.6087C14.6555 53.6087 3.3913 42.3445 3.3913 28.5C3.3913 14.6555 14.6555 3.3913 28.5 3.3913C42.3445 3.3913 53.6087 14.6555 53.6087 28.5C53.6087 42.3445 42.3445 53.6087 28.5 53.6087Z" fill="#CC0514" stroke="#F9F9F9"/>
<path d="M41.4178 18.6465L23.7305 36.3338L17.9998 30.603C17.5323 30.1355 16.7766 30.1355 16.3091 30.603C15.8416 31.0705 15.8416 31.8262 16.3091 32.2937L22.8852 38.8698C23.1184 39.1029 23.4244 39.2201 23.7305 39.2201C24.0366 39.2201 24.3427 39.1029 24.5759 38.8698L43.1085 20.3372C43.576 19.8697 43.576 19.114 43.1085 18.6465C42.641 18.179 41.8841 18.179 41.4178 18.6465Z" fill="#CC0514" stroke="#F9F9F9"/>
</svg>
