<svg width="20" height="25" viewBox="0 0 20 25" fill="none" xmlns="http://www.w3.org/2000/svg">
<path d="M11.9721 15.9999C11.6037 15.6841 11.2352 15.2894 10.8142 14.8683C10.5247 14.5525 10.2089 14.1052 9.94576 13.6315C10.4458 11.921 10.6826 10.2894 10.1563 9.4999C9.91944 9.13148 9.55102 8.94727 9.07734 8.94727C8.55102 8.94727 8.15629 9.18411 7.97207 9.63148C7.55102 10.5788 8.1826 12.3157 8.94576 13.7367C8.73523 14.421 8.47208 15.1578 8.15629 15.9736C7.97208 16.421 7.76155 16.8683 7.55102 17.2894C5.39313 18.1315 4.07734 19.0788 3.89313 19.9736C3.81418 20.3946 3.94576 20.7631 4.31418 21.0525C4.52471 21.2104 4.76155 21.3157 5.02471 21.3157C5.12997 21.3157 5.23523 21.2894 5.3405 21.2631C6.3405 20.9999 7.41944 19.5262 8.20892 18.0262C8.6826 17.842 9.23523 17.6578 9.8405 17.4999C10.551 17.2894 11.1826 17.1315 11.7352 17.0262C12.7615 17.842 13.63 18.2894 14.3931 18.2894C14.9721 18.3157 15.3931 18.1052 15.7879 17.7104C16.3668 17.1315 16.13 16.6315 16.051 16.4999C15.5773 15.7631 14.13 15.6052 11.9721 15.9999ZM5.07734 20.342C4.97207 20.3683 4.91944 20.342 4.86681 20.3157C4.76155 20.2367 4.76155 20.1841 4.78786 20.1315C4.8405 19.8157 5.44576 19.2367 6.76155 18.6052C6.12997 19.5525 5.49839 20.2367 5.07734 20.342ZM8.81418 9.9999C8.8405 9.94727 8.86681 9.86832 9.07734 9.86832C9.26155 9.86832 9.3405 9.94727 9.39313 9.9999C9.62997 10.342 9.60365 11.2104 9.31418 12.3683C8.86681 11.3683 8.62997 10.421 8.81418 9.9999ZM9.55102 16.5788C9.28786 16.6578 9.02471 16.7367 8.76155 16.8157C8.8405 16.6315 8.91944 16.4473 8.99839 16.2894C9.1826 15.7894 9.39313 15.2894 9.57734 14.7631C9.78787 15.0525 9.97207 15.3157 10.1563 15.4999C10.3931 15.7631 10.63 15.9999 10.8668 16.2367C10.4458 16.342 9.99839 16.4473 9.55102 16.5788ZM15.1037 17.0525C14.9194 17.2631 14.6826 17.342 14.3931 17.342C13.9984 17.342 13.5247 17.1578 12.9721 16.7894C14.4984 16.5788 15.3668 16.7367 15.1037 17.0525Z" fill="#CC0514"/>
<path d="M19.4211 6.34211L13.6579 0.578947C13.2895 0.210526 12.7895 0 12.2895 0H1.94737C1.42105 0 0.947369 0.210526 0.578947 0.578947C0.210526 0.947368 0 1.42105 0 1.94737V23.0526C0 24.1316 0.868421 25 1.94737 25H18.0526C19.1316 25 20 24.1316 20 23.0526V7.71053C20 7.21053 19.7895 6.71053 19.4211 6.34211ZM18.3158 6.81579H14.0526C13.5789 6.81579 13.1842 6.42105 13.1842 5.94737V1.71053L18.3158 6.81579ZM18.0526 23.8684H1.94737C1.5 23.8684 1.13158 23.5 1.13158 23.0526V1.94737C1.13158 1.73684 1.21053 1.52632 1.36842 1.36842C1.52632 1.21053 1.73684 1.13158 1.94737 1.13158H12.0526V5.94737C12.0526 7.05263 12.9474 7.94737 14.0526 7.94737H18.8684V23.0526C18.8684 23.5 18.5 23.8684 18.0526 23.8684Z" fill="#CC0514"/>
</svg>
