<svg width="40" height="52" viewBox="0 0 40 52" fill="none" xmlns="http://www.w3.org/2000/svg">
<path d="M36.8696 14.0435H31.4348V11.8696C31.4348 5.78261 26.4348 1 20.0217 1C13.6087 1 8.6087 5.78261 8.6087 11.8696V14.0435H3.17391C1.97826 14.0435 1 15.0217 1 16.2174V48.8261C1 50.0217 1.97826 51 3.17391 51H36.8696C38.0652 51 39.0435 50.0217 39.0435 48.8261V16.2174C39.0435 15.0217 38.0652 14.0435 36.8696 14.0435ZM10.7826 11.8696C10.7826 6.97826 14.8587 3.17391 20.0217 3.17391C25.1848 3.17391 29.2609 6.97826 29.2609 11.8696V14.0435H10.7826V11.8696ZM36.8696 48.8261H3.17391V16.2174H36.8696V48.8261ZM13.5 30.3478C11.1087 30.3478 9.15217 28.3913 9.15217 26C9.15217 23.6087 11.1087 21.6522 13.5 21.6522C15.8913 21.6522 17.8478 23.6087 17.8478 26C17.8478 28.3913 15.8913 30.3478 13.5 30.3478ZM13.5 23.8261C12.3043 23.8261 11.3261 24.8043 11.3261 26C11.3261 27.1957 12.3043 28.1739 13.5 28.1739C14.6957 28.1739 15.6739 27.1957 15.6739 26C15.6739 24.8043 14.6957 23.8261 13.5 23.8261ZM26.5435 43.3913C24.1522 43.3913 22.1957 41.4348 22.1957 39.0435C22.1957 36.6522 24.1522 34.6957 26.5435 34.6957C28.9348 34.6957 30.8913 36.6522 30.8913 39.0435C30.8913 41.4348 28.9348 43.3913 26.5435 43.3913ZM26.5435 36.8696C25.3478 36.8696 24.3696 37.8478 24.3696 39.0435C24.3696 40.2391 25.3478 41.2174 26.5435 41.2174C27.7391 41.2174 28.7174 40.2391 28.7174 39.0435C28.7174 37.8478 27.7391 36.8696 26.5435 36.8696ZM10.7826 42.8478C10.5109 42.8478 10.2391 42.7391 10.0217 42.5217C9.58696 42.087 9.58696 41.4348 10.0217 41L28.5 22.5217C28.9348 22.087 29.587 22.087 30.0217 22.5217C30.4565 22.9565 30.4565 23.6087 30.0217 24.0435L11.5435 42.5217C11.3261 42.7391 11.0543 42.8478 10.7826 42.8478Z" fill="#CC0514" stroke="#F9F9F9"/>
</svg>
