<svg width="17" height="17" viewBox="0 0 17 17" fill="none" xmlns="http://www.w3.org/2000/svg">
<path d="M3.86364 0C1.73898 0 0 1.73895 0 3.86364C0 5.98829 1.73896 7.72727 3.86364 7.72727C5.98831 7.72727 7.72727 5.98829 7.72727 3.86364C7.72727 1.73895 5.9883 0 3.86364 0ZM14.5852 1.53338C14.4149 1.55798 14.2577 1.63872 14.1385 1.76278L1.77486 14.1264C1.70034 14.1972 1.6407 14.2822 1.59943 14.3763C1.55815 14.4705 1.53607 14.5719 1.53447 14.6746C1.53287 14.7774 1.5518 14.8795 1.59013 14.9749C1.62847 15.0702 1.68544 15.157 1.75772 15.2301C1.83 15.3032 1.91613 15.3611 2.01108 15.4005C2.10602 15.4399 2.20787 15.4599 2.31066 15.4595C2.41344 15.459 2.5151 15.438 2.60969 15.3978C2.70428 15.3575 2.78988 15.2988 2.8615 15.2251L15.2251 2.86151C15.345 2.74896 15.4258 2.60112 15.4559 2.43949C15.4859 2.27786 15.4636 2.11086 15.3923 1.96276C15.3209 1.81465 15.2042 1.69316 15.0591 1.61594C14.9139 1.53872 14.7479 1.5098 14.5852 1.53338ZM3.86364 1.54543C5.15307 1.54543 6.18182 2.57416 6.18182 3.86361C6.18182 5.15302 5.15306 6.18179 3.86364 6.18179C2.57421 6.18179 1.54545 5.15302 1.54545 3.86361C1.54545 2.57416 2.5742 1.54543 3.86364 1.54543ZM13.1364 9.2727C11.0117 9.2727 9.27273 11.0117 9.27273 13.1364C9.27273 15.2611 11.0117 17 13.1364 17C15.261 17 17 15.2611 17 13.1364C17 11.0117 15.261 9.2727 13.1364 9.2727ZM13.1364 10.8182C14.4258 10.8182 15.4545 11.847 15.4545 13.1364C15.4545 14.4258 14.4258 15.4545 13.1364 15.4545C11.8469 15.4545 10.8182 14.4258 10.8182 13.1364C10.8182 11.847 11.8469 10.8182 13.1364 10.8182Z" fill="#BDBDBD"/>
</svg>
