<svg width="17" height="17" viewBox="0 0 17 17" fill="none" xmlns="http://www.w3.org/2000/svg">
<path d="M12.824 16.9926C12.9057 16.9963 12.9837 17 13.0654 17C13.9384 17 14.6666 16.6853 15.2387 16.0671C15.2424 16.0634 15.2498 16.056 15.2535 16.0523C15.4578 15.8079 15.6882 15.5858 15.9334 15.3526C16.1005 15.1934 16.2714 15.0305 16.4311 14.8602C17.1927 14.0679 17.189 13.0647 16.4237 12.302L14.3062 10.1919C13.9422 9.81424 13.5075 9.61433 13.0469 9.61433C12.5899 9.61433 12.1516 9.81054 11.7764 10.1845L10.5244 11.4321C10.413 11.3691 10.2978 11.3136 10.1864 11.2581C10.0452 11.1877 9.9152 11.1211 9.80004 11.0507C8.65213 10.3251 7.61196 9.3774 6.61636 8.15941C6.11485 7.53005 5.78422 7.00436 5.55018 6.46385C5.8771 6.16768 6.18172 5.86041 6.4752 5.56054C6.58293 5.45318 6.69066 5.34212 6.80211 5.23105C7.5971 4.43881 7.5971 3.45775 6.80211 2.66921L5.75079 1.62152C5.6282 1.49935 5.50932 1.37718 5.39044 1.25871C5.1564 1.02178 4.91493 0.773737 4.67346 0.551611C4.3094 0.188807 3.87847 0 3.42154 0C2.96832 0 2.52996 0.188807 2.15104 0.551611L0.832251 1.86215C0.349313 2.34342 0.0744095 2.92835 0.014971 3.60584C-0.0518974 4.44991 0.104129 5.34582 0.505339 6.42683C1.12573 8.09647 2.05817 9.64765 3.44012 11.3062C5.12297 13.3053 7.14388 14.8861 9.45455 16.0004C10.335 16.4188 11.5126 16.9074 12.824 16.9926ZM4.14223 10.725C2.82716 9.14787 1.94672 7.68184 1.36348 6.11215C1.00314 5.14591 0.8694 4.39438 0.925123 3.67988C0.965987 3.21712 1.1443 2.8321 1.47864 2.50261L2.79001 1.19578C2.99061 1.00327 3.20979 0.90331 3.42526 0.90331C3.63701 0.90331 3.84504 1.00327 4.04565 1.19948C4.27968 1.4179 4.50629 1.64743 4.74405 1.88807C4.86293 2.01024 4.98552 2.13611 5.11182 2.25828L6.16314 3.30597C6.59407 3.73541 6.59407 4.15745 6.16314 4.58689C6.0517 4.69795 5.94025 4.80902 5.83252 4.92008C5.5056 5.24957 5.20098 5.56054 4.86293 5.86041C4.8555 5.86781 4.85178 5.87152 4.84435 5.87892C4.54344 6.17879 4.58802 6.46755 4.66232 6.68227C4.66604 6.69338 4.66975 6.70078 4.67346 6.71189C4.94465 7.36346 5.32729 7.98171 5.91424 8.72213C6.97299 10.0216 8.08747 11.0322 9.32081 11.8134C9.47313 11.9096 9.63287 11.9911 9.78889 12.0688C9.93006 12.1392 10.0601 12.2058 10.1752 12.2761C10.1901 12.2835 10.2012 12.2909 10.2161 12.2983C10.335 12.3576 10.4501 12.3872 10.569 12.3872C10.8625 12.3872 11.0482 12.2021 11.1077 12.1392L12.4265 10.8249C12.6271 10.625 12.8425 10.5213 13.0543 10.5213C13.3143 10.5213 13.5261 10.6842 13.6635 10.8249L15.7885 12.9425C16.3086 13.4608 16.0708 13.9273 15.7773 14.2345C15.6287 14.3937 15.4727 14.5418 15.3092 14.701C15.0603 14.9379 14.804 15.186 14.57 15.4636C14.1688 15.8931 13.6933 16.093 13.0729 16.093C13.0134 16.093 12.9503 16.0893 12.8908 16.0856C11.7355 16.0115 10.6656 15.5636 9.85948 15.1823C7.66025 14.1272 5.73964 12.6278 4.14223 10.725Z" fill="#CC0514"/>
</svg>
