<svg width="48" height="43" viewBox="0 0 48 43" fill="none" xmlns="http://www.w3.org/2000/svg">
<path d="M25.2666 0C15.0625 0 6.47831 6.92145 4.12368 16.2929L1.26822 11.2118C1.20542 11.0914 1.1076 10.9929 0.987663 10.9292C0.867722 10.8655 0.731291 10.8396 0.596352 10.8549C0.48512 10.8675 0.378797 10.9077 0.287041 10.9719C0.195284 11.036 0.121001 11.122 0.0709388 11.2221C0.0208769 11.3222 -0.00337775 11.4333 0.00037844 11.5451C0.00413463 11.657 0.0357827 11.7662 0.0924474 11.8627L3.78775 18.4555C3.87224 18.6104 4.0143 18.7259 4.18323 18.777C4.35216 18.828 4.5344 18.8106 4.69057 18.7284L11.2623 15.369C11.3447 15.3313 11.4186 15.2774 11.4795 15.2104C11.5405 15.1434 11.5873 15.0648 11.6171 14.9793C11.647 14.8937 11.6592 14.803 11.653 14.7127C11.6469 14.6223 11.6226 14.5341 11.5815 14.4534C11.5404 14.3726 11.4835 14.301 11.414 14.2429C11.3446 14.1847 11.2641 14.1412 11.1774 14.115C11.0907 14.0887 10.9996 14.0803 10.9096 14.0901C10.8195 14.1 10.7324 14.1279 10.6534 14.1723L5.36245 16.8598C5.36255 16.8529 5.36255 16.8459 5.36245 16.839C7.4877 7.95345 15.5914 1.34383 25.2666 1.34383C36.5656 1.34383 45.6958 10.365 45.6958 21.5C45.6958 32.6351 36.5656 41.6563 25.2666 41.6563C15.5992 41.6563 7.51593 35.0169 5.38344 26.1402C5.36912 26.0484 5.33591 25.9605 5.28592 25.8822C5.23593 25.8039 5.17024 25.7368 5.093 25.6852C5.01577 25.6335 4.92866 25.5985 4.83718 25.5822C4.74571 25.5659 4.65185 25.5688 4.56154 25.5907C4.47124 25.6125 4.38644 25.6528 4.31252 25.7091C4.23859 25.7654 4.17714 25.8364 4.13205 25.9176C4.08695 25.9988 4.05919 26.0886 4.05053 26.1811C4.04186 26.2736 4.05247 26.3669 4.08169 26.4551C6.35878 35.9338 14.9846 43 25.2666 43C37.2822 43 47.0395 33.371 47.0395 21.5C47.0395 9.6291 37.2822 0.000123024 25.2666 0.000123024V0ZM25.4556 10.0571C25.2887 10.078 25.1357 10.1608 25.0268 10.2891C24.918 10.4174 24.8612 10.5818 24.8677 10.7499V21.4999C24.8677 21.6007 24.8903 21.7002 24.9339 21.791C24.9775 21.8819 25.041 21.9618 25.1197 22.0248L31.8384 27.3998C31.9073 27.455 31.9865 27.496 32.0713 27.5206C32.1561 27.5452 32.2449 27.5529 32.3326 27.5431C32.4204 27.5334 32.5053 27.5064 32.5827 27.4639C32.66 27.4213 32.7282 27.3639 32.7834 27.2949C32.8385 27.226 32.8796 27.1469 32.9041 27.0621C32.9287 26.9773 32.9363 26.8884 32.9266 26.8007C32.9168 26.7129 32.8898 26.628 32.8472 26.5506C32.8046 26.4733 32.7472 26.4051 32.6783 26.35L26.2115 21.185V10.7499C26.2153 10.6524 26.1978 10.5553 26.1603 10.4652C26.1227 10.3751 26.066 10.2943 25.9941 10.2284C25.9222 10.1624 25.8367 10.113 25.7437 10.0834C25.6508 10.0538 25.5524 10.0448 25.4556 10.0571Z" fill="#CC0514"/>
</svg>
