<svg width="35" height="35" viewBox="0 0 35 35" fill="none" xmlns="http://www.w3.org/2000/svg">
<path d="M13.8523 1.00001C13.576 1.00138 13.4653 1.19684 13.3964 1.39898L12.9974 4.97542C11.3621 5.5466 9.88003 6.41774 8.59454 7.52595L5.28882 6.07258C5.08186 5.98154 4.81262 6.07349 4.7046 6.27206L1.05691 12.5985C0.952818 12.7894 1.01063 13.053 1.18518 13.1827L4.10615 15.32C3.94807 16.1463 3.82118 16.9942 3.82118 17.8706C3.82118 18.7464 3.94825 19.581 4.10615 20.4068L1.18518 22.5442C1.00366 22.6748 0.94493 22.9491 1.05691 23.1426L4.7046 29.4691C4.81722 29.6627 5.08519 29.7477 5.28882 29.6544L8.59454 28.201C9.88007 29.3093 11.362 30.1802 12.9974 30.7515L13.3964 34.3279C13.4173 34.5521 13.6272 34.7421 13.8523 34.7411H21.1477C21.3728 34.7411 21.5825 34.5521 21.6036 34.3279L22.0026 30.7515C23.638 30.1802 25.12 29.3093 26.4055 28.201L29.7112 29.6544C29.9148 29.7477 30.1828 29.663 30.2954 29.4691L33.9431 23.1426C34.0551 22.9491 33.9964 22.6748 33.8148 22.5442L30.8938 20.4068C31.0517 19.581 31.1788 18.7464 31.1788 17.8706C31.1788 16.9942 31.0519 16.1463 30.8938 15.32L33.8148 13.1827C33.9894 13.053 34.0472 12.7894 33.9431 12.5985L30.2954 6.27206C30.1874 6.0735 29.9181 5.98154 29.7112 6.07258L26.4055 7.52595C25.1199 6.41774 23.6379 5.5466 22.0026 4.97542L21.6036 1.39898C21.5758 1.17983 21.3685 0.998302 21.1477 1.00001H13.8523ZM14.2655 1.91193H20.7345L21.1192 5.33164C21.1383 5.50552 21.2662 5.66271 21.4327 5.71636C23.1645 6.27683 24.7442 7.18898 26.0635 8.38088C26.1909 8.49824 26.3881 8.53305 26.548 8.46637L29.6969 7.08424L32.9457 12.6983L30.1529 14.7358C30.0165 14.8393 29.9471 15.0241 29.9819 15.1918C30.1659 16.0562 30.2669 16.9567 30.2669 17.8706C30.2669 18.7844 30.1659 19.6707 29.9819 20.5351C29.9473 20.7028 30.0166 20.8876 30.1529 20.9911L32.9457 23.0286L29.7112 28.6426L26.548 27.2605C26.3881 27.1938 26.1909 27.2286 26.0635 27.346C24.7442 28.5379 23.1645 29.4501 21.4327 30.0105C21.2662 30.0642 21.1381 30.2214 21.1192 30.3953L20.7345 33.8292H14.2655L13.8808 30.3953C13.8617 30.2214 13.7338 30.0642 13.5673 30.0105C11.8355 29.4501 10.2558 28.5379 8.93651 27.346C8.80911 27.2287 8.61186 27.1938 8.452 27.2605L5.28882 28.6426L2.05433 23.0286L4.84709 20.9911C4.98351 20.8876 5.05286 20.7028 5.01807 20.5351C4.83409 19.6707 4.7331 18.7844 4.7331 17.8706C4.7331 16.9567 4.83409 16.0562 5.01807 15.1918C5.05273 15.0241 4.98342 14.8393 4.84709 14.7358L2.05433 12.6983L5.30305 7.08424L8.452 8.46637C8.61186 8.53305 8.80911 8.49824 8.93651 8.38088C10.2558 7.18898 11.8355 6.27683 13.5673 5.71636C13.7338 5.66271 13.8619 5.50552 13.8808 5.33164L14.2655 1.91193ZM17.5 9.66327C12.9727 9.66327 9.2927 13.3432 9.2927 17.8706C9.2927 22.3979 12.9727 26.0779 17.5 26.0779C22.0273 26.0779 25.7073 22.3979 25.7073 17.8706C25.7073 13.3432 22.0273 9.66327 17.5 9.66327ZM17.5 10.5752C21.5345 10.5752 24.7954 13.836 24.7954 17.8706C24.7954 21.905 21.5345 25.1659 17.5 25.1659C13.4655 25.1659 10.2046 21.905 10.2046 17.8706C10.2046 13.836 13.4655 10.5752 17.5 10.5752Z" fill="#CC0514" stroke="#CC0514" stroke-width="0.5"/>
</svg>
