<svg width="21" height="22" viewBox="0 0 21 22" fill="none" xmlns="http://www.w3.org/2000/svg">
<path d="M8.67501 1.00001C8.40954 1.00133 8.18162 1.24324 8.14869 1.46054L7.93488 3.38488C7.07822 3.70504 6.29191 4.15301 5.59936 4.72533L3.8395 3.95231C3.60437 3.85056 3.30042 3.95178 3.17339 4.17435L1.06814 7.82567C0.941715 8.04575 1.00519 8.35553 1.20792 8.50822L2.76218 9.64308C2.68647 10.0843 2.62239 10.5337 2.62239 11C2.62239 11.4657 2.68668 11.908 2.76218 12.3487L1.20792 13.4835C1.00111 13.6368 0.937136 13.9528 1.06814 14.1743L3.17339 17.8256C3.30305 18.0453 3.60621 18.1426 3.8395 18.0395L5.59936 17.2664C6.29191 17.8387 7.07822 18.2868 7.93488 18.6069L8.14869 20.5313C8.17688 20.7871 8.41762 21.0015 8.67501 21H12.8855C13.1429 21.0026 13.3837 20.7871 13.4118 20.5313L13.6257 18.6069C14.4823 18.2868 15.2686 17.8387 15.9612 17.2664L17.721 18.0395C17.9543 18.1426 18.2575 18.0452 18.3871 17.8256L20.4924 14.1743C20.6234 13.9528 20.5594 13.6368 20.3526 13.4835L18.7983 12.3487C18.8739 11.908 18.9381 11.4657 18.9381 11C18.9381 10.5337 18.874 10.0843 18.7983 9.64308L20.3526 8.50822C20.5553 8.35553 20.6188 8.04575 20.4924 7.82567L18.3871 4.17435C18.2601 3.95187 17.9562 3.85056 17.721 3.95231L15.9612 4.72533C15.2686 4.15301 14.4823 3.70504 13.6257 3.38488L13.4118 1.46054C13.3799 1.20758 13.1405 0.998038 12.8855 1.00001H8.67501ZM9.15198 2.05264H12.4086L12.6059 3.79606C12.6307 3.99389 12.7779 4.17114 12.9678 4.23191C13.9317 4.54387 14.8076 5.05718 15.5418 5.7204C15.692 5.85632 15.9241 5.89333 16.1092 5.81086L17.7128 5.10362L19.3493 7.9408L17.9266 8.97698C17.7634 9.09564 17.6794 9.314 17.721 9.5115C17.8238 9.99435 17.8855 10.4928 17.8855 11C17.8855 11.5072 17.8238 11.9974 17.721 12.4803C17.6794 12.6778 17.7634 12.8961 17.9266 13.0148L19.3493 14.0592L17.721 16.8881L16.1092 16.1809C15.9241 16.0984 15.692 16.1355 15.5418 16.2714C14.8076 16.9346 13.9317 17.4479 12.9678 17.7599C12.7779 17.8206 12.6307 17.9979 12.6059 18.1957L12.4086 19.9473H9.15198L8.95461 18.1957C8.92988 17.9979 8.78267 17.8206 8.59277 17.7599C7.62883 17.4479 6.75294 16.9346 6.01875 16.2714C5.86854 16.1355 5.63639 16.0984 5.45133 16.1809L3.8395 16.8881L2.21121 14.0592L3.63392 13.0148C3.79718 12.8961 3.88118 12.6778 3.8395 12.4803C3.73673 11.9974 3.67502 11.5072 3.67502 11C3.67502 10.4928 3.73673 9.99435 3.8395 9.5115C3.88118 9.314 3.79718 9.09564 3.63392 8.97698L2.21121 7.9408L3.84771 5.10362L5.45133 5.81086C5.63639 5.89333 5.86854 5.85632 6.01875 5.7204C6.75294 5.05718 7.62883 4.54387 8.59277 4.23191C8.78267 4.17114 8.92982 3.99389 8.95461 3.79606L9.15198 2.05264ZM10.7803 6.26316C8.17043 6.26316 6.04344 8.39013 6.04344 11C6.04344 13.6098 8.17043 15.7368 10.7803 15.7368C13.3901 15.7368 15.5171 13.6098 15.5171 11C15.5171 8.39013 13.3901 6.26316 10.7803 6.26316ZM10.7803 7.3158C12.8212 7.3158 14.4645 8.959 14.4645 11C14.4645 13.0409 12.8212 14.6842 10.7803 14.6842C8.73932 14.6842 7.09607 13.0409 7.09607 11C7.09607 8.959 8.73932 7.3158 10.7803 7.3158Z" fill="#BDBDBD" stroke="#BDBDBD" stroke-width="0.3"/>
</svg>
