<svg width="18" height="19" viewBox="0 0 18 19" fill="none" xmlns="http://www.w3.org/2000/svg">
<path d="M10.6313 16.3354C10.2499 16.4003 9.86051 16.4332 9.47386 16.4332C5.69484 16.4332 2.6205 13.3589 2.6205 9.58002C2.6205 9.15065 2.66012 8.72247 2.73831 8.30744C2.76405 8.17082 2.74134 8.0295 2.67414 7.90779C2.36114 7.34108 2.19567 6.69834 2.19567 6.04921C2.19559 3.92425 3.92449 2.19559 6.04961 2.19559C6.37975 2.19559 6.6474 1.92794 6.6474 1.59779C6.6474 1.26765 6.37975 1 6.04961 1C3.26524 1 1 3.265 1 6.04913C1 6.82762 1.18165 7.59925 1.52702 8.29413C1.45919 8.71625 1.42491 9.1477 1.42491 9.57994C1.42491 14.018 5.03567 17.6287 9.47386 17.6287C9.92746 17.6287 10.3843 17.5902 10.8316 17.5141C11.1572 17.4587 11.3761 17.15 11.3208 16.8246C11.2654 16.4991 10.9569 16.2801 10.6313 16.3354Z" fill="#CC0514" stroke="white" stroke-width="0.25"/>
<path d="M17.3972 11.0009C17.4805 10.5314 17.5227 10.0542 17.5227 9.57954C17.5227 5.14119 13.912 1.53027 9.47391 1.53027C9.05601 1.53027 8.6354 1.56279 8.2238 1.62696C7.89756 1.67781 7.67439 1.98348 7.72524 2.30972C7.77609 2.63595 8.08184 2.85921 8.408 2.80828C8.75879 2.7536 9.11746 2.72586 9.47391 2.72586C13.2528 2.72586 16.3271 5.80044 16.3271 9.57954C16.3271 10.039 16.2807 10.5015 16.1893 10.9541C16.164 11.0793 16.1795 11.2094 16.2335 11.3251C16.4719 11.8364 16.5928 12.3834 16.5928 12.9509C16.5928 15.0757 14.864 16.8044 12.7391 16.8044C12.4089 16.8044 12.1413 17.0721 12.1413 17.4022C12.1413 17.7323 12.4089 18 12.7391 18C15.5233 18 17.7884 15.735 17.7884 12.9509C17.7884 12.274 17.6569 11.619 17.3972 11.0009Z" fill="#CC0514" stroke="white" stroke-width="0.25"/>
<path d="M12.5236 10.9391C12.5236 10.5824 12.4535 10.277 12.3155 10.0317C12.1776 9.78633 11.9827 9.58053 11.7361 9.41928C11.4891 9.25955 11.1859 9.12102 10.8347 9.00904C10.4871 8.89737 10.0887 8.79303 9.6512 8.69874C9.30472 8.6188 9.05158 8.55694 8.90029 8.51462C8.74837 8.47269 8.59749 8.41451 8.45139 8.34094C8.30401 8.26705 8.18653 8.17762 8.10172 8.07464C8.01659 7.96999 7.97499 7.84915 7.97499 7.70592C7.97499 7.47462 8.09686 7.28197 8.34793 7.11721C8.5951 6.95517 8.92516 6.87308 9.32879 6.87308C9.77028 6.87308 10.0818 6.94648 10.2812 7.09785C10.4778 7.24785 10.6488 7.45852 10.7887 7.72513C10.9 7.91635 10.9982 8.04667 11.091 8.1286C11.2062 8.23039 11.3761 8.25215 11.4984 8.25215C11.694 8.25215 11.8594 8.18304 11.99 8.04706C12.1208 7.91077 12.187 7.75582 12.187 7.5866C12.187 7.40065 12.1336 7.20744 12.0286 7.01232C11.9241 6.81768 11.7554 6.62838 11.5275 6.45016C11.2998 6.27257 11.0097 6.12798 10.665 6.02038C10.3197 5.91389 9.90515 5.85938 9.43257 5.85938C8.84028 5.85938 8.31812 5.94123 7.88093 6.10328C7.44367 6.26468 7.10444 6.49949 6.87321 6.80094C6.64214 7.10255 6.52474 7.45206 6.52474 7.83943C6.52474 8.24625 6.63577 8.59146 6.85472 8.86588C7.07375 9.13991 7.37416 9.3591 7.74743 9.5178C8.12236 9.67721 8.59247 9.81789 9.14435 9.93602C9.555 10.0218 9.89 10.1048 10.1408 10.1828C10.3874 10.2594 10.5921 10.3725 10.7489 10.5189C10.9052 10.6656 10.9846 10.8589 10.9846 11.0931C10.9846 11.3935 10.8416 11.6365 10.5479 11.8374C10.2584 12.0346 9.87653 12.1346 9.41376 12.1346C9.07716 12.1346 8.80122 12.085 8.59438 11.987C8.38771 11.8892 8.22479 11.7628 8.11033 11.6116C7.99667 11.4611 7.88914 11.2709 7.79039 11.045C7.71012 10.8562 7.61153 10.7112 7.49787 10.615C7.38421 10.5187 7.24313 10.4697 7.07838 10.4697C6.87265 10.4697 6.70798 10.5307 6.57535 10.6558C6.44408 10.7788 6.37744 10.929 6.37744 11.1023C6.37744 11.4005 6.48831 11.7115 6.70671 12.0269C6.92598 12.3429 7.21459 12.5988 7.56474 12.7877C8.05884 13.0497 8.69378 13.1823 9.45329 13.1823C10.0862 13.1823 10.6419 13.085 11.1048 12.8929C11.5669 12.7007 11.9227 12.4313 12.1624 12.0921C12.4019 11.753 12.5236 11.3651 12.5236 10.9391Z" fill="#CC0514" stroke="white" stroke-width="0.25"/>
</svg>
