<?xml version="1.0" encoding="utf-8"?><svg xmlns="http://www.w3.org/2000/svg" xmlns:xlink="http://www.w3.org/1999/xlink"><symbol viewBox="0 0 62 57" id="bag" xmlns="http://www.w3.org/2000/svg"><path fill-rule="evenodd" clip-rule="evenodd" d="M24.063 1c-4.201 0-7.651 3.452-7.651 7.658 0 .175.006.348.018.521H7.05C3.73 9.18 1 11.91 1 15.23v15.146c0 1.714.727 3.268 1.886 4.371v14.514c0 3.702 3.038 6.739 6.74 6.739h42.536c3.702 0 6.739-3.037 6.739-6.739V34.747a6.025 6.025 0 001.886-4.37V15.23c0-3.322-2.729-6.05-6.05-6.05h-9.38c.012-.174.019-.347.019-.522 0-4.206-3.45-7.658-7.652-7.658H24.063zm0 2.717h13.661A4.944 4.944 0 0142.63 9.18H19.157a4.944 4.944 0 014.905-5.462zM7.05 11.897h47.685a3.335 3.335 0 013.334 3.333v15.146a3.328 3.328 0 01-3.334 3.327H36.08v-2.455c0-1.482-1.223-2.72-2.713-2.72H28.42c-1.49 0-2.72 1.23-2.72 2.72v2.455H7.05a3.327 3.327 0 01-3.334-3.327V15.23a3.335 3.335 0 013.334-3.334zm21.366 19.346h4.946v7.641H28.42c-.008 0-.003.007-.003 0V31.25l-.001-.007zm-22.813 5c.464.116.949.177 1.447.177H25.7v2.462c0 1.49 1.23 2.72 2.72 2.72h4.945c1.49 0 2.713-1.238 2.713-2.72V36.42h18.657c.498 0 .983-.061 1.447-.177v13.018a4.018 4.018 0 01-4.021 4.022H9.625a4.019 4.019 0 01-4.021-4.022V36.243z"/></symbol><symbol viewBox="0 0 18 22" id="book" xmlns="http://www.w3.org/2000/svg"><path d="M16.456 20H3.493a1.5 1.5 0 010-3h11.966a.5.5 0 00.499-.5v-13A2.5 2.5 0 0013.465 1H3.493A2.5 2.5 0 001 3.5v15A2.5 2.5 0 003.493 21h12.963a.5.5 0 000-1zM1.997 3.5A1.5 1.5 0 013.493 2h9.972a1.5 1.5 0 011.496 1.5V16H3.493a2.48 2.48 0 00-1.496.501V3.5z"/><path d="M4.49 6h7.978a.5.5 0 000-1H4.49a.5.5 0 000 1zm6.98 2H5.487a.5.5 0 000 1h5.983a.5.5 0 000-1z"/></symbol><symbol viewBox="0 0 60 63" id="box" xmlns="http://www.w3.org/2000/svg"><path d="M53.257 62.364H6.743a.953.953 0 01-.954-.954V28.628c0-.527.427-.954.954-.954h46.514c.527 0 .954.427.954.954V61.41a.953.953 0 01-.954.954zm-45.56-1.908h44.606V29.582H7.697v30.874z"/><path d="M59.046 29.582H.954A.953.953 0 010 28.628V14.664c0-.527.427-.954.954-.954h58.092c.527 0 .954.427.954.954v13.964a.953.953 0 01-.954.954zM1.908 27.674h56.184V15.618H1.908v12.056z"/><path d="M35.88 15.522a63.96 63.96 0 01-5.977-.298.953.953 0 01-.814-1.236c.34-1.073 3.404-10.552 6.698-12.719A7.628 7.628 0 0141.563.161a7.635 7.635 0 014.866 3.302 7.63 7.63 0 011.107 5.776 7.634 7.634 0 01-3.301 4.867c-1.715 1.128-5.226 1.416-8.355 1.416zm-4.595-2.093c3.438.259 9.858.427 11.9-.916a5.736 5.736 0 002.483-3.658 5.738 5.738 0 00-.832-4.343 5.736 5.736 0 00-3.659-2.482 5.74 5.74 0 00-4.341.832c-2.043 1.345-4.427 7.307-5.55 10.567zm5.026-11.363h.01-.01z"/><path d="M24.12 15.523c-3.13 0-6.64-.288-8.355-1.417a7.634 7.634 0 01-3.301-4.866 7.635 7.635 0 011.106-5.777C15.9-.075 20.672-1.063 24.213 1.27c3.294 2.167 6.358 11.646 6.697 12.72a.954.954 0 01-.813 1.235c-.538.054-3.096.299-5.978.299zm-4.122-13.61a5.78 5.78 0 00-4.835 2.6 5.738 5.738 0 00-.83 4.342 5.736 5.736 0 002.481 3.658c2.043 1.344 8.463 1.175 11.9.916-1.123-3.26-3.507-9.222-5.55-10.566a5.744 5.744 0 00-3.166-.95z"/><path d="M35.13 62.364H24.87a.953.953 0 01-.954-.954V14.664c0-.527.427-.954.954-.954h10.258c.528 0 .954.427.954.954V61.41a.953.953 0 01-.954.954zm-9.305-1.908h8.35V15.618h-8.35v44.838z"/></symbol><symbol viewBox="0 0 53 52" id="clock" xmlns="http://www.w3.org/2000/svg"><path d="M38.523 20.292a.855.855 0 00-1.24 0l-4.955 4.956c-.797-.531-1.593-.797-2.566-.797-1.24 0-2.39.531-3.275 1.416-.885.885-1.416 2.035-1.416 3.274 0 1.24.531 2.39 1.416 3.275.885.885 2.036 1.416 3.275 1.416 1.238 0 2.389-.531 3.274-1.416.885-.885 1.416-2.036 1.416-3.275 0-.973-.266-1.946-.885-2.654l4.867-4.868c.443-.442.443-.973.089-1.327zm-6.638 10.885c-1.062 1.062-3.008 1.062-4.159 0-.53-.531-.885-1.328-.885-2.036 0-.796.266-1.504.885-2.035 1.062-1.062 3.009-1.062 4.16 0 .53.531.884 1.327.884 2.035-.088.797-.354 1.505-.885 2.036zM4.717 28.345c0 .53.354.885.885.885h15.31c.53 0 .884-.354.884-.885s-.354-.885-.884-.885H5.601c-.531 0-.885.354-.885.885zm-2.832-6.549h15.31c.53 0 .885-.354.885-.885 0-.53-.354-.885-.885-.885H1.885c-.531 0-.885.354-.885.885s.354.885.885.885zM18.08 35.779c0-.532-.354-.885-.885-.885H1.885c-.531 0-.885.354-.885.885 0 .53.354.884.885.884h15.31c.53 0 .885-.353.885-.884z"/><path d="M46.045 13.212l.885-.885c.442.266.885.354 1.416.354a2.984 2.984 0 003.008-3.008c0-1.682-1.239-3.01-2.92-3.01a2.984 2.984 0 00-3.009 3.01c0 .442.089.973.354 1.327l-.973.973C41.089 8.7 36.31 6.663 31 6.487V2.77h3.186c.531 0 .885-.354.885-.885S34.717 1 34.186 1h-8.053c-.53 0-.885.354-.885.885 0 .53.354.885.885.885h3.098v3.717c-5.841.265-11.24 2.655-15.31 6.99a.855.855 0 000 1.24.855.855 0 001.239 0c3.982-4.16 9.292-6.46 14.955-6.46 5.399 0 10.354 2.123 14.071 5.575a20.308 20.308 0 016.46 14.867c0 11.328-9.203 20.531-20.53 20.531-5.487 0-10.62-2.124-14.514-6.018a.856.856 0 00-1.239 0 .856.856 0 000 1.24C18.611 48.698 24.186 51 30.115 51c12.301 0 22.301-10 22.301-22.3 0-6.019-2.389-11.505-6.371-15.488zm2.389-4.778a1.21 1.21 0 011.239 1.239 1.21 1.21 0 01-1.239 1.239c-.265 0-.53-.089-.796-.266 0-.089-.089-.089-.089-.177 0 0-.088-.088-.177-.088-.177-.178-.177-.443-.177-.708a1.21 1.21 0 011.239-1.24z"/><path d="M19.407 42.858c-.265.443-.177.974.266 1.24a18.532 18.532 0 0010.53 3.274c10.266 0 18.585-8.319 18.585-18.584 0-10.266-8.319-18.584-18.584-18.584-3.894 0-7.7 1.239-10.885 3.54-.354.265-.443.884-.177 1.238.265.354.796.443 1.239.177 2.831-2.123 6.283-3.186 9.823-3.186 9.292 0 16.814 7.523 16.814 16.815 0 9.292-7.522 16.814-16.814 16.814-3.452 0-6.726-.974-9.47-2.92-.53-.266-1.061-.178-1.327.176z"/></symbol><symbol viewBox="0 0 17 17" id="clock-small" xmlns="http://www.w3.org/2000/svg"><path d="M8.5 17C3.813 17 0 13.187 0 8.5 0 3.813 3.813 0 8.5 0 13.187 0 17 3.813 17 8.5c0 4.687-3.813 8.5-8.5 8.5zM8.5.972C4.349.972.972 4.349.972 8.5s3.377 7.529 7.528 7.529c4.15 0 7.528-3.378 7.528-7.53C16.028 4.35 12.65.973 8.5.973z"/><path d="M11.107 11.592a.483.483 0 01-.344-.142L8.156 8.843a.485.485 0 01-.142-.343V2.985a.486.486 0 01.972 0v5.314l2.464 2.464a.485.485 0 01-.343.829z"/></symbol><symbol viewBox="0 0 15 17" id="home" xmlns="http://www.w3.org/2000/svg"><path d="M14.368 17H9.77c-.345 0-.575-.227-.575-.566v-5.096H5.747v5.096c0 .34-.23.566-.575.566H.575C.23 17 0 16.773 0 16.434V6.242c0-.17.057-.34.23-.453L7.126.127c.23-.17.518-.17.748 0L14.77 5.79c.115.114.23.283.23.453v10.192c-.057.34-.287.566-.632.566zm-4.023-1.132h3.448V6.525L7.471 1.316 1.15 6.526v9.342h3.449v-5.096c0-.34.23-.566.574-.566H9.77c.345 0 .575.226.575.566v5.096z"/></symbol><symbol viewBox="0 0 18 12" id="menu" xmlns="http://www.w3.org/2000/svg"><path d="M5 1.25h13m-13 5h13m-13 5h13m-18-10h2m-2 5h2m-2 5h2"/></symbol><symbol viewBox="0 0 21 20" id="messages" xmlns="http://www.w3.org/2000/svg"><path d="M1.761 13.313h2.15v2.194l.134.135a.782.782 0 00.537.224c.18 0 .38-.067.515-.202l3-2.35h7.366a.755.755 0 00.76-.762V1.762a.755.755 0 00-.76-.762H1.76a.755.755 0 00-.76.761v10.791c0 .426.336.761.761.761zm.135-11.417h13.432v10.522H8.052a.71.71 0 00-.515.201l-2.731 2.127v-2.06l-.134-.134a.513.513 0 00-.359-.156c-.044 0-.112 0-.156.022H1.896V1.896z"/><path d="M19.716 4.134h-2.26a.45.45 0 00-.449.448.45.45 0 00.448.448h2.127v10.522h-2.284a.482.482 0 00-.514.135l-.112.134v2.06l-2.732-2.127a.71.71 0 00-.515-.202H8.254a.45.45 0 00-.448.448.45.45 0 00.448.448h5.127l3.022 2.35a.695.695 0 00.492.202h.023c.201 0 .38-.09.537-.224l.135-.134v-2.194h2.149a.755.755 0 00.76-.761V4.895a.789.789 0 00-.783-.76z"/></symbol><symbol viewBox="0 0 57 57" id="ok" xmlns="http://www.w3.org/2000/svg"><path d="M28.5 1C13.335 1 1 13.335 1 28.5 1 43.664 13.335 56 28.5 56 43.664 56 56 43.664 56 28.5 56 13.335 43.664 1 28.5 1zm0 52.609c-13.845 0-25.109-11.265-25.109-25.109 0-13.845 11.264-25.109 25.109-25.109 13.844 0 25.109 11.264 25.109 25.109 0 13.844-11.265 25.109-25.109 25.109z"/><path d="M41.418 18.646L23.73 36.334 18 30.603a1.194 1.194 0 10-1.69 1.69l6.575 6.577a1.193 1.193 0 001.69 0L43.11 20.337a1.194 1.194 0 10-1.691-1.69z"/></symbol><symbol viewBox="0 0 20 25" id="pdf" xmlns="http://www.w3.org/2000/svg"><path d="M11.972 16c-.368-.316-.737-.71-1.158-1.132a6.778 6.778 0 01-.868-1.236c.5-1.711.737-3.343.21-4.132-.237-.369-.605-.553-1.079-.553-.526 0-.92.237-1.105.684-.421.948.21 2.685.974 4.106-.21.684-.474 1.42-.79 2.237a20.04 20.04 0 01-.605 1.315c-2.158.842-3.474 1.79-3.658 2.685-.079.42.053.79.421 1.078.21.158.448.264.71.264.106 0 .211-.027.316-.053 1-.263 2.08-1.737 2.869-3.237A14.947 14.947 0 019.84 17.5c.71-.21 1.342-.369 1.894-.474 1.027.816 1.895 1.263 2.658 1.263.58.027 1-.184 1.395-.579.579-.579.342-1.079.263-1.21-.474-.737-1.921-.895-4.079-.5zm-6.895 4.342a.261.261 0 01-.21-.026c-.105-.08-.105-.132-.08-.184.053-.316.659-.895 1.975-1.527-.632.947-1.264 1.632-1.685 1.737zM8.814 10c.027-.053.053-.132.263-.132.185 0 .264.08.316.132.237.342.21 1.21-.079 2.368-.447-1-.684-1.947-.5-2.368zm.737 6.579l-.79.237c.08-.184.158-.369.237-.527.185-.5.395-1 .58-1.526.21.29.394.553.578.737.237.263.474.5.71.737-.42.105-.868.21-1.315.342zm5.553.473c-.185.211-.421.29-.71.29-.396 0-.87-.184-1.422-.553 1.526-.21 2.395-.052 2.132.263z"/><path d="M19.421 6.342L13.658.58A1.957 1.957 0 0012.29 0H1.947C1.421 0 .947.21.58.579A1.911 1.911 0 000 1.947v21.106C0 24.132.868 25 1.947 25h16.106A1.943 1.943 0 0020 23.053V7.71c0-.5-.21-1-.579-1.369zm-1.105.474h-4.263a.876.876 0 01-.869-.869V1.711l5.132 5.105zm-.263 17.052H1.947a.82.82 0 01-.815-.815V1.947c0-.21.079-.42.236-.579a.816.816 0 01.58-.236h10.105v4.815a2 2 0 002 2h4.815v15.106a.82.82 0 01-.815.815z"/></symbol><symbol viewBox="0 0 40 52" id="percent" xmlns="http://www.w3.org/2000/svg"><path d="M36.87 14.043h-5.435V11.87c0-6.087-5-10.87-11.413-10.87S8.609 5.783 8.609 11.87v2.174H3.174A2.18 2.18 0 001 16.216v32.61A2.18 2.18 0 003.174 51H36.87a2.18 2.18 0 002.174-2.174V16.217a2.18 2.18 0 00-2.174-2.173zM10.783 11.87c0-4.892 4.076-8.696 9.239-8.696 5.163 0 9.239 3.804 9.239 8.696v2.174H10.783V11.87zM36.87 48.826H3.174V16.217H36.87v32.61zM13.5 30.348A4.36 4.36 0 019.152 26a4.36 4.36 0 014.348-4.348A4.36 4.36 0 0117.848 26a4.36 4.36 0 01-4.348 4.348zm0-6.522A2.18 2.18 0 0011.326 26a2.18 2.18 0 002.174 2.174A2.18 2.18 0 0015.674 26a2.18 2.18 0 00-2.174-2.174zm13.044 19.565a4.36 4.36 0 01-4.348-4.347 4.36 4.36 0 014.348-4.348 4.36 4.36 0 014.347 4.348 4.36 4.36 0 01-4.347 4.347zm0-6.521a2.18 2.18 0 00-2.174 2.174 2.18 2.18 0 002.174 2.173 2.18 2.18 0 002.173-2.173 2.18 2.18 0 00-2.173-2.174zm-15.761 5.978c-.272 0-.544-.109-.761-.326a1.05 1.05 0 010-1.522L28.5 22.522a1.05 1.05 0 011.522 0 1.05 1.05 0 010 1.522L11.543 42.522a1.073 1.073 0 01-.76.326z"/></symbol><symbol viewBox="0 0 17 17" id="percent-small" xmlns="http://www.w3.org/2000/svg"><path d="M3.864 0A3.875 3.875 0 000 3.864a3.875 3.875 0 003.864 3.863 3.875 3.875 0 003.863-3.863A3.875 3.875 0 003.864 0zm10.721 1.533a.773.773 0 00-.447.23L1.776 14.126a.773.773 0 101.087 1.1L15.224 2.861a.773.773 0 00-.64-1.329zm-10.721.012a2.307 2.307 0 012.318 2.319 2.307 2.307 0 01-2.318 2.318 2.307 2.307 0 01-2.319-2.318 2.307 2.307 0 012.319-2.319zm9.272 7.728a3.875 3.875 0 00-3.863 3.863A3.875 3.875 0 0013.136 17 3.875 3.875 0 0017 13.136a3.875 3.875 0 00-3.864-3.863zm0 1.545a2.307 2.307 0 012.319 2.318 2.306 2.306 0 01-2.319 2.319 2.307 2.307 0 01-2.318-2.319 2.307 2.307 0 012.318-2.318z"/></symbol><symbol viewBox="0 0 17 17" id="phone" xmlns="http://www.w3.org/2000/svg"><path d="M12.824 16.993c.082.003.16.007.241.007.873 0 1.602-.315 2.174-.933l.014-.015c.205-.244.435-.466.68-.7.168-.159.338-.322.498-.492.762-.792.758-1.795-.007-2.558l-2.118-2.11c-.364-.378-.798-.578-1.26-.578-.456 0-.894.197-1.27.57l-1.252 1.248c-.111-.063-.226-.118-.338-.174a5.199 5.199 0 01-.386-.207c-1.148-.726-2.188-1.674-3.184-2.892-.501-.629-.832-1.155-1.066-1.695.327-.296.632-.604.925-.903l.327-.33c.795-.792.795-1.773 0-2.562L5.751 1.622l-.36-.363c-.235-.237-.476-.485-.718-.707C4.31.189 3.878 0 3.422 0 2.968 0 2.53.189 2.15.552L.832 1.862a2.736 2.736 0 00-.817 1.744c-.067.844.09 1.74.49 2.82.62 1.67 1.553 3.222 2.935 4.88A18.09 18.09 0 009.455 16c.88.419 2.058.907 3.369.993zm-8.682-6.268C2.827 9.148 1.947 7.682 1.363 6.112 1.003 5.146.87 4.394.925 3.68c.041-.463.22-.848.554-1.177L2.79 1.196c.2-.193.42-.293.635-.293.212 0 .42.1.62.296.235.219.461.448.699.69.119.121.242.247.368.37l1.051 1.047c.431.43.431.851 0 1.28-.111.112-.223.223-.33.334-.327.33-.632.64-.97.94l-.019.019c-.3.3-.256.589-.182.803l.011.03c.272.651.654 1.27 1.241 2.01 1.059 1.3 2.173 2.31 3.407 3.091.152.097.312.178.468.256.141.07.271.137.386.207l.041.022c.119.06.234.09.353.09.293 0 .48-.186.539-.249l1.319-1.314c.2-.2.415-.304.627-.304.26 0 .472.163.61.304l2.125 2.118c.52.518.282.984-.012 1.292-.148.159-.304.307-.468.466a9.64 9.64 0 00-.739.763c-.401.43-.877.629-1.497.629-.06 0-.123-.004-.182-.007-1.155-.074-2.225-.522-3.032-.904a17.062 17.062 0 01-5.717-4.457z"/></symbol><symbol viewBox="0 0 48 43" id="reload-time" xmlns="http://www.w3.org/2000/svg"><path d="M25.267 0C15.063 0 6.478 6.921 4.124 16.293l-2.856-5.081a.672.672 0 10-1.176.65l3.696 6.594a.672.672 0 00.903.272l6.571-3.359a.67.67 0 00.152-1.126.67.67 0 00-.76-.07L5.361 16.86v-.021C7.488 7.953 15.592 1.344 25.267 1.344c11.299 0 20.429 9.021 20.429 20.156 0 11.135-9.13 20.156-20.43 20.156-9.667 0-17.75-6.64-19.883-15.516a.672.672 0 10-1.301.315C6.359 35.934 14.985 43 25.267 43c12.015 0 21.772-9.629 21.772-21.5C47.04 9.63 37.282 0 25.267 0zm.189 10.057a.672.672 0 00-.588.693V21.5a.673.673 0 00.252.525l6.718 5.375a.672.672 0 10.84-1.05l-6.466-5.165V10.75a.673.673 0 00-.756-.693z"/></symbol><symbol viewBox="0 0 21 22" id="setting" xmlns="http://www.w3.org/2000/svg"><path d="M8.675 1c-.265.001-.493.243-.526.46l-.214 1.925a8.103 8.103 0 00-2.336 1.34l-1.76-.773a.545.545 0 00-.666.222L1.068 7.826a.545.545 0 00.14.682l1.554 1.135A7.94 7.94 0 002.622 11c0 .466.065.908.14 1.349l-1.554 1.134a.545.545 0 00-.14.691l2.105 3.652c.13.22.433.317.667.213l1.76-.773a8.102 8.102 0 002.335 1.34l.214 1.925c.028.256.269.47.526.469h4.21a.544.544 0 00.527-.469l.214-1.924a8.103 8.103 0 002.335-1.34l1.76.773a.545.545 0 00.666-.214l2.105-3.652a.545.545 0 00-.14-.69l-1.554-1.135c.076-.441.14-.883.14-1.349a7.95 7.95 0 00-.14-1.357l1.555-1.135a.545.545 0 00.14-.682l-2.106-3.652a.545.545 0 00-.666-.222l-1.76.773a8.104 8.104 0 00-2.335-1.34l-.214-1.924A.545.545 0 0012.885 1h-4.21zm.477 1.053h3.257l.197 1.743a.539.539 0 00.362.436 7.11 7.11 0 012.574 1.488c.15.136.382.173.567.09l1.604-.706 1.636 2.837-1.422 1.036a.54.54 0 00-.206.534c.103.483.165.982.165 1.489 0 .507-.062.997-.165 1.48a.54.54 0 00.206.535l1.422 1.044-1.628 2.83-1.612-.708a.539.539 0 00-.567.09 7.112 7.112 0 01-2.574 1.489.539.539 0 00-.362.436l-.197 1.751H9.152l-.197-1.751a.538.538 0 00-.362-.436 7.111 7.111 0 01-2.574-1.489.54.54 0 00-.568-.09l-1.611.707-1.63-2.828 1.423-1.044a.539.539 0 00.206-.535A7.073 7.073 0 013.675 11c0-.507.062-1.006.165-1.489a.539.539 0 00-.206-.534L2.21 7.941l1.637-2.837 1.603.707a.54.54 0 00.568-.09 7.11 7.11 0 012.574-1.49.539.539 0 00.362-.435l.197-1.743zm1.628 4.21A4.745 4.745 0 006.043 11a4.745 4.745 0 004.737 4.737A4.745 4.745 0 0015.517 11a4.745 4.745 0 00-4.737-4.737zm0 1.053A3.676 3.676 0 0114.464 11a3.676 3.676 0 01-3.684 3.684A3.676 3.676 0 017.096 11a3.676 3.676 0 013.684-3.684z"/></symbol><symbol viewBox="0 0 18 19" id="skype" xmlns="http://www.w3.org/2000/svg"><path d="M10.631 16.335a6.861 6.861 0 01-7.893-8.028.598.598 0 00-.064-.4 3.854 3.854 0 01-.478-1.858A3.858 3.858 0 016.05 2.196.598.598 0 006.05 1 5.055 5.055 0 001 6.05c0 .778.182 1.55.527 2.244a8.118 8.118 0 00-.102 1.286c0 4.438 3.61 8.049 8.049 8.049.453 0 .91-.039 1.358-.115a.598.598 0 00-.2-1.179zM17.397 11a8.15 8.15 0 00.126-1.42c0-4.439-3.611-8.05-8.05-8.05-.417 0-.838.033-1.25.097a.598.598 0 10.185 1.181 6.861 6.861 0 017.781 8.146.598.598 0 00.044.371 3.858 3.858 0 01-3.494 5.48.598.598 0 000 1.195 5.055 5.055 0 004.658-7z"/><path d="M12.524 10.94c0-.358-.07-.663-.208-.908a1.758 1.758 0 00-.58-.613 3.778 3.778 0 00-.901-.41 12.572 12.572 0 00-1.184-.31c-.346-.08-.6-.142-.75-.184a2.449 2.449 0 01-.45-.174 1.063 1.063 0 01-.35-.266.562.562 0 01-.126-.37c0-.23.122-.423.373-.588.247-.162.577-.244.98-.244.442 0 .754.073.953.225.197.15.368.36.508.627.111.191.21.322.302.404.115.101.285.123.407.123a.657.657 0 00.492-.205.652.652 0 00.197-.46c0-.186-.053-.38-.158-.575a1.845 1.845 0 00-.502-.562 2.709 2.709 0 00-.862-.43 4.222 4.222 0 00-1.232-.16c-.593 0-1.115.081-1.552.243-.437.162-.777.396-1.008.698a1.67 1.67 0 00-.348 1.038c0 .407.11.752.33 1.027.219.274.52.493.892.652.375.16.845.3 1.397.418.411.086.746.169.997.247.246.076.451.19.608.336.156.147.236.34.236.574 0 .3-.143.543-.437.744-.29.198-.671.298-1.134.298-.337 0-.613-.05-.82-.148a1.283 1.283 0 01-.484-.375 2.816 2.816 0 01-.32-.567 1.139 1.139 0 00-.292-.43.63.63 0 00-.42-.145.698.698 0 00-.503.186.593.593 0 00-.198.446c0 .298.111.61.33.925.219.316.508.572.858.76.494.263 1.129.395 1.888.395.633 0 1.189-.097 1.652-.29.462-.191.818-.46 1.057-.8.24-.339.362-.727.362-1.153z"/></symbol><symbol viewBox="0 0 20 19" id="star" xmlns="http://www.w3.org/2000/svg"><path d="M15.182 17.999a.404.404 0 00.37-.494l-1.317-5.742 4.437-3.865a.405.405 0 00-.231-.71l-5.861-.522-2.3-5.415a.405.405 0 00-.749 0l-2.3 5.415-5.861.522a.404.404 0 00-.23.71l4.436 3.865-1.317 5.742a.406.406 0 00.6.438l5.046-3.032 5.046 3.032c.07.041.15.061.23.056zm-.633-1.24l-4.437-2.665a.404.404 0 00-.413 0L5.262 16.76l1.158-5.05a.406.406 0 00-.128-.399L2.39 7.91l5.153-.455a.404.404 0 00.338-.247l2.025-4.762 2.026 4.762a.405.405 0 00.338.247l5.153.455-3.903 3.402a.405.405 0 00-.128.399l1.158 5.049z"/></symbol><symbol viewBox="0 0 20 21" id="user" xmlns="http://www.w3.org/2000/svg"><path d="M2.695 20h14.487a1.72 1.72 0 001.425-.742 1.714 1.714 0 00.178-1.603c-1.484-3.622-4.957-5.968-8.847-5.968a9.476 9.476 0 00-8.817 5.968 1.714 1.714 0 00.178 1.603c.297.475.832.742 1.396.742zm-.475-1.9a8.282 8.282 0 017.718-5.225 8.282 8.282 0 017.72 5.225c.058.178.058.356-.06.505a.52.52 0 01-.416.207H2.695a.474.474 0 01-.416-.237.465.465 0 01-.06-.475zM5.188 5.75a4.764 4.764 0 004.75 4.75 4.764 4.764 0 004.75-4.75A4.764 4.764 0 009.938 1a4.764 4.764 0 00-4.75 4.75zm8.313 0a3.573 3.573 0 01-3.563 3.563A3.573 3.573 0 016.376 5.75a3.573 3.573 0 013.562-3.563 3.573 3.573 0 013.563 3.563z"/></symbol><symbol viewBox="0 0 72 52" id="users" xmlns="http://www.w3.org/2000/svg"><path d="M58.42 32.613c2.338-1.936 3.87-5 3.87-8.226 0-5.564-4.516-10.484-9.677-10.484s-9.678 4.92-9.678 10.484c0 3.226 1.533 6.29 3.871 8.226-1.048.403-2.016.806-2.983 1.37-3.065-3.628-7.097-6.45-11.775-7.822 3.549-2.5 6.049-6.774 6.049-11.451C38.097 7.37 32.048 1 25.193 1 18.34 1 12.29 7.371 12.29 14.71c0 4.677 2.5 8.951 6.049 11.451C8.339 29.145 1 38.42 1 49.387 1 50.274 1.726 51 2.613 51h66.129c.887 0 1.613-.726 1.613-1.613 0-7.742-5-14.355-11.936-16.774zm-12.26-8.226c0-3.387 2.823-7.258 6.452-7.258s6.452 3.871 6.452 7.258-2.823 7.258-6.452 7.258c-3.63 0-6.452-3.87-6.452-7.258zM15.516 14.71c0-4.92 4.113-10.484 9.678-10.484 5.564 0 9.677 5.564 9.677 10.484 0 4.919-4.113 10.483-9.678 10.483-5.564 0-9.677-5.564-9.677-10.483zM4.306 47.774c.807-10.806 9.92-19.355 20.888-19.355 10.967 0 20.08 8.549 20.887 19.355H4.306zm45 0c-.241-4.032-1.532-7.903-3.629-11.129 2.097-1.129 4.436-1.774 6.936-1.774 7.42 0 13.629 5.645 14.435 12.903H49.306z"/></symbol></svg>