<svg width="20" height="19" viewBox="0 0 20 19" fill="none" xmlns="http://www.w3.org/2000/svg">
<path d="M15.1819 17.999C15.2405 17.9955 15.2976 17.9792 15.3493 17.9514C15.401 17.9235 15.446 17.8847 15.4812 17.8377C15.5164 17.7907 15.541 17.7366 15.5532 17.6791C15.5654 17.6216 15.565 17.5622 15.552 17.5049L14.2349 11.7628L18.6717 7.89756C18.7317 7.84537 18.775 7.77663 18.7962 7.69994C18.8175 7.62325 18.8156 7.542 18.791 7.46634C18.7664 7.39067 18.7201 7.32395 18.6578 7.27449C18.5955 7.22504 18.5201 7.19505 18.4409 7.18826L12.5795 6.66626L10.2795 1.25093C10.249 1.17669 10.1972 1.11321 10.1306 1.06853C10.064 1.02386 9.98562 1 9.90546 1C9.8253 1 9.74694 1.02386 9.68035 1.06853C9.61375 1.11321 9.56191 1.17669 9.53141 1.25093L7.23141 6.66626L1.36998 7.18826C1.2908 7.19505 1.21537 7.22504 1.15311 7.27449C1.09085 7.32395 1.04452 7.39067 1.0199 7.46634C0.995281 7.542 0.993464 7.62325 1.01468 7.69994C1.03589 7.77663 1.07919 7.84537 1.13918 7.89756L5.57604 11.7628L4.25891 17.5049C4.24131 17.5821 4.24672 17.6629 4.27448 17.7371C4.30224 17.8113 4.35113 17.8757 4.41508 17.9223C4.47904 17.969 4.55526 17.9958 4.6343 17.9996C4.71335 18.0033 4.79174 17.9837 4.85977 17.9432L9.90546 14.9108L14.9511 17.9432C15.0208 17.9845 15.1012 18.004 15.1819 17.999ZM14.5492 16.7597L10.1124 14.0939C10.0498 14.0566 9.9783 14.0369 9.90546 14.0369C9.83262 14.0369 9.76113 14.0566 9.69854 14.0939L5.26168 16.7597L6.41964 11.711C6.43665 11.6393 6.43377 11.5642 6.41133 11.494C6.38889 11.4238 6.34774 11.361 6.2923 11.3125L2.38866 7.9095L7.54179 7.45525C7.61531 7.44888 7.68569 7.42249 7.74531 7.37894C7.80493 7.33539 7.85151 7.27634 7.88002 7.20818L9.90546 2.44636L11.9309 7.20818C11.9594 7.27634 12.006 7.33539 12.0656 7.37894C12.1252 7.42249 12.1956 7.44888 12.2691 7.45525L17.4223 7.9095L13.5186 11.3125C13.4632 11.361 13.422 11.4238 13.3996 11.494C13.3771 11.5642 13.3743 11.6393 13.3913 11.711L14.5492 16.7597Z"   stroke-width="0.5"/>
</svg>
