<svg width="20" height="21" viewBox="0 0 20 21" fill="none" xmlns="http://www.w3.org/2000/svg">
<path d="M2.69466 20H17.1822C17.7462 20 18.2806 19.7328 18.6072 19.2578C18.9337 18.7828 18.9931 18.1891 18.7853 17.6547C17.3009 14.0328 13.8275 11.6875 9.93841 11.6875C6.04935 11.6875 2.57591 14.0328 1.12122 17.6547C0.913411 18.1891 0.972787 18.7828 1.29935 19.2578C1.59622 19.7328 2.1306 20 2.69466 20ZM2.21966 18.1C3.49622 14.9234 6.52435 12.875 9.93841 12.875C13.3525 12.875 16.3806 14.9234 17.6572 18.1C17.7165 18.2781 17.7165 18.4563 17.5978 18.6047C17.5087 18.7234 17.3603 18.8125 17.1822 18.8125H2.69466C2.51654 18.8125 2.3681 18.7234 2.27904 18.575C2.16029 18.4266 2.16029 18.2484 2.21966 18.1Z" fill="#BDBDBD" stroke="#BDBDBD" stroke-width="0.2"/>
<path d="M5.18848 5.75C5.18848 8.3625 7.32598 10.5 9.93848 10.5C12.551 10.5 14.6885 8.3625 14.6885 5.75C14.6885 3.1375 12.551 1 9.93848 1C7.32598 1 5.18848 3.1375 5.18848 5.75ZM13.501 5.75C13.501 7.70937 11.8979 9.3125 9.93848 9.3125C7.9791 9.3125 6.37598 7.70937 6.37598 5.75C6.37598 3.79063 7.9791 2.1875 9.93848 2.1875C11.8979 2.1875 13.501 3.79063 13.501 5.75Z" fill="#BDBDBD" stroke="#BDBDBD" stroke-width="0.2"/>
</svg>
