<svg width="72" height="52" viewBox="0 0 72 52" fill="none" xmlns="http://www.w3.org/2000/svg">
<path d="M58.4193 32.6129C60.7581 30.6774 62.2903 27.6129 62.2903 24.3871C62.2903 18.8226 57.7742 13.9032 52.6129 13.9032C47.4516 13.9032 42.9355 18.8226 42.9355 24.3871C42.9355 27.6129 44.4677 30.6774 46.8064 32.6129C45.7581 33.0161 44.7903 33.4194 43.8226 33.9839C40.7581 30.3548 36.7258 27.5323 32.0484 26.1613C35.5968 23.6613 38.0968 19.3871 38.0968 14.7097C38.0968 7.37097 32.0484 1 25.1935 1C18.3387 1 12.2903 7.37097 12.2903 14.7097C12.2903 19.3871 14.7903 23.6613 18.3387 26.1613C8.33871 29.1452 1 38.4194 1 49.3871C1 50.2742 1.72581 51 2.6129 51H68.7419C69.629 51 70.3548 50.2742 70.3548 49.3871C70.3548 41.6452 65.3548 35.0323 58.4193 32.6129ZM46.1613 24.3871C46.1613 21 48.9839 17.129 52.6129 17.129C56.2419 17.129 59.0645 21 59.0645 24.3871C59.0645 27.7742 56.2419 31.6452 52.6129 31.6452C48.9839 31.6452 46.1613 27.7742 46.1613 24.3871ZM15.5161 14.7097C15.5161 9.79032 19.629 4.22581 25.1935 4.22581C30.7581 4.22581 34.871 9.79032 34.871 14.7097C34.871 19.629 30.7581 25.1935 25.1935 25.1935C19.629 25.1935 15.5161 19.629 15.5161 14.7097ZM4.30645 47.7742C5.1129 36.9677 14.2258 28.4194 25.1935 28.4194C36.1613 28.4194 45.2742 36.9677 46.0806 47.7742H4.30645ZM49.3064 47.7742C49.0645 43.7419 47.7742 39.871 45.6774 36.6452C47.7742 35.5161 50.1129 34.871 52.6129 34.871C60.0323 34.871 66.2419 40.5161 67.0484 47.7742H49.3064Z" fill="#CC0514" stroke="white" stroke-width="2"/>
</svg>
