<svg width="30" height="30" viewBox="0 0 30 30" fill="none" xmlns="http://www.w3.org/2000/svg">
<path fill-rule="evenodd" clip-rule="evenodd" d="M15 0C6.72406 0 0 6.72409 0 15C0 23.2759 6.72406 30 15 30C23.2759 30 30 23.2759 30 15C30 6.72409 23.2759 0 15 0ZM15 1.36353C22.539 1.36353 28.6365 7.46104 28.6365 15C28.6365 22.539 22.539 28.6366 15 28.6366C7.46103 28.6366 1.36343 22.539 1.36343 15C1.36343 7.46105 7.46103 1.36353 15 1.36353Z" fill="#CC0514"/>
<path fill-rule="evenodd" clip-rule="evenodd" d="M14.99 7.43611C14.8092 7.43883 14.637 7.51319 14.5111 7.64283C14.3852 7.77248 14.3159 7.94681 14.3185 8.12752V18.3801C14.3169 18.4706 14.3333 18.5605 14.3669 18.6446C14.4004 18.7287 14.4504 18.8053 14.5139 18.8698C14.5773 18.9344 14.653 18.9857 14.7365 19.0207C14.82 19.0557 14.9096 19.0738 15.0002 19.0738C15.0907 19.0738 15.1804 19.0557 15.2638 19.0207C15.3473 18.9857 15.423 18.9344 15.4865 18.8698C15.55 18.8053 15.5999 18.7287 15.6335 18.6446C15.667 18.5605 15.6835 18.4706 15.6819 18.3801V8.12752C15.6832 8.03632 15.6662 7.94577 15.6318 7.86127C15.5975 7.77677 15.5466 7.70002 15.4821 7.63555C15.4176 7.57108 15.3408 7.5202 15.2562 7.48595C15.1717 7.45169 15.0812 7.43475 14.99 7.43611Z" fill="#CC0514"/>
<path fill-rule="evenodd" clip-rule="evenodd" d="M14.99 21.0489C14.8093 21.0516 14.637 21.126 14.5111 21.2556C14.3852 21.3852 14.3159 21.5595 14.3185 21.7402V21.8726C14.3169 21.9631 14.3333 22.0531 14.3669 22.1372C14.4004 22.2213 14.4504 22.2978 14.5139 22.3624C14.5773 22.427 14.653 22.4783 14.7365 22.5133C14.82 22.5483 14.9096 22.5663 15.0002 22.5663C15.0907 22.5663 15.1804 22.5483 15.2638 22.5133C15.3473 22.4783 15.423 22.427 15.4865 22.3624C15.55 22.2978 15.5999 22.2213 15.6335 22.1372C15.667 22.0531 15.6835 21.9631 15.6819 21.8726V21.7402C15.6832 21.649 15.6661 21.5585 15.6318 21.474C15.5975 21.3895 15.5466 21.3128 15.482 21.2483C15.4175 21.1838 15.3407 21.133 15.2562 21.0987C15.1717 21.0645 15.0811 21.0475 14.99 21.0489Z" fill="#CC0514"/>
</svg>
