<svg width="62" height="57" viewBox="0 0 62 57" fill="none" xmlns="http://www.w3.org/2000/svg"><path fill-rule="evenodd" clip-rule="evenodd" d="M24.063 1c-4.201 0-7.651 3.452-7.651 7.658 0 .175.006.348.018.521H7.05C3.73 9.18 1 11.91 1 15.23v15.146c0 1.714.727 3.268 1.886 4.371v14.514c0 3.702 3.038 6.739 6.74 6.739h42.536c3.702 0 6.739-3.037 6.739-6.739V34.747a6.025 6.025 0 001.886-4.37V15.23c0-3.322-2.729-6.05-6.05-6.05h-9.38c.012-.174.019-.347.019-.522 0-4.206-3.45-7.658-7.652-7.658H24.063zm0 2.717h13.661A4.944 4.944 0 0142.63 9.18H19.157a4.944 4.944 0 014.905-5.462zM7.05 11.897h47.685a3.335 3.335 0 013.334 3.333v15.146a3.328 3.328 0 01-3.334 3.327H36.08v-2.455c0-1.482-1.223-2.72-2.713-2.72H28.42c-1.49 0-2.72 1.23-2.72 2.72v2.455H7.05a3.327 3.327 0 01-3.334-3.327V15.23a3.335 3.335 0 013.334-3.334zm21.366 19.346h4.946v7.641s0 0 0 0H28.42c-.008 0-.003.007-.003 0V31.25l-.001-.007zm-22.813 5c.464.116.949.177 1.447.177H25.7v2.462c0 1.49 1.23 2.72 2.72 2.72h4.945c1.49 0 2.713-1.238 2.713-2.72V36.42h18.657c.498 0 .983-.061 1.447-.177v13.018a4.018 4.018 0 01-4.021 4.022H9.625a4.019 4.019 0 01-4.021-4.022V36.243z" fill="#CC0514" stroke="#fff" stroke-width="1.5" stroke-linejoin="round"/></svg>