<svg width="60" height="63" viewBox="0 0 60 63" fill="none" xmlns="http://www.w3.org/2000/svg"><path d="M53.257 62.364H6.743a.953.953 0 01-.954-.954V28.628c0-.527.427-.954.954-.954h46.514c.527 0 .954.427.954.954V61.41a.953.953 0 01-.954.954zm-45.56-1.908h44.606V29.582H7.697v30.874z" fill="#CC0514"/><path d="M59.046 29.582H.954A.953.953 0 010 28.628V14.664c0-.527.427-.954.954-.954h58.092c.527 0 .954.427.954.954v13.964a.953.953 0 01-.954.954zM1.908 27.674h56.184V15.618H1.908v12.056z" fill="#CC0514"/><path d="M35.88 15.522a63.96 63.96 0 01-5.977-.298.953.953 0 01-.814-1.236c.34-1.073 3.404-10.552 6.698-12.719A7.628 7.628 0 0141.563.161a7.635 7.635 0 014.866 3.302 7.63 7.63 0 011.107 5.776 7.634 7.634 0 01-3.301 4.867c-1.715 1.128-5.226 1.416-8.355 1.416zm-4.595-2.093c3.438.259 9.858.427 11.9-.916a5.736 5.736 0 002.483-3.658 5.738 5.738 0 00-.832-4.343 5.736 5.736 0 00-3.659-2.482 5.74 5.74 0 00-4.341.832c-2.043 1.345-4.427 7.307-5.55 10.567zm5.026-11.363h.01-.01z" fill="#CC0514"/><path d="M24.12 15.523c-3.13 0-6.64-.288-8.355-1.417a7.634 7.634 0 01-3.301-4.866 7.635 7.635 0 011.106-5.777C15.9-.075 20.672-1.063 24.213 1.27c3.294 2.167 6.358 11.646 6.697 12.72a.954.954 0 01-.813 1.235c-.538.054-3.096.299-5.978.299zm-4.122-13.61a5.78 5.78 0 00-4.835 2.6 5.738 5.738 0 00-.83 4.342 5.736 5.736 0 002.481 3.658c2.043 1.344 8.463 1.175 11.9.916-1.123-3.26-3.507-9.222-5.55-10.566a5.744 5.744 0 00-3.166-.95z" fill="#CC0514"/><path d="M35.13 62.364H24.87a.953.953 0 01-.954-.954V14.664c0-.527.427-.954.954-.954h10.258c.528 0 .954.427.954.954V61.41a.953.953 0 01-.954.954zm-9.305-1.908h8.35V15.618h-8.35v44.838z" fill="#CC0514"/></svg>