<svg width="17" height="17" viewBox="0 0 17 17" fill="none" xmlns="http://www.w3.org/2000/svg"><path d="M8.5 17C3.813 17 0 13.187 0 8.5 0 3.813 3.813 0 8.5 0 13.187 0 17 3.813 17 8.5c0 4.687-3.813 8.5-8.5 8.5zM8.5.972C4.349.972.972 4.349.972 8.5s3.377 7.529 7.528 7.529c4.15 0 7.528-3.378 7.528-7.53C16.028 4.35 12.65.973 8.5.973z" fill="#CC0514"/><path d="M11.107 11.592a.483.483 0 01-.344-.142L8.156 8.843a.485.485 0 01-.142-.343V2.985a.486.486 0 01.972 0v5.314l2.464 2.464a.485.485 0 01-.343.829z" fill="#CC0514"/></svg>