<svg width="53" height="52" viewBox="0 0 53 52" fill="none" xmlns="http://www.w3.org/2000/svg"><path d="M38.523 20.292a.855.855 0 00-1.24 0l-4.955 4.956c-.797-.531-1.593-.797-2.566-.797-1.24 0-2.39.531-3.275 1.416-.885.885-1.416 2.035-1.416 3.274 0 1.24.531 2.39 1.416 3.275.885.885 2.036 1.416 3.275 1.416 1.238 0 2.389-.531 3.274-1.416.885-.885 1.416-2.036 1.416-3.275 0-.973-.266-1.946-.885-2.654l4.867-4.868c.443-.442.443-.973.089-1.327zm-6.638 10.885c-1.062 1.062-3.008 1.062-4.159 0-.53-.531-.885-1.328-.885-2.036 0-.796.266-1.504.885-2.035 1.062-1.062 3.009-1.062 4.16 0 .53.531.884 1.327.884 2.035-.088.797-.354 1.505-.885 2.036zM4.717 28.345c0 .53.354.885.885.885h15.31c.53 0 .884-.354.884-.885s-.354-.885-.884-.885H5.601c-.531 0-.885.354-.885.885zm-2.832-6.549h15.31c.53 0 .885-.354.885-.885 0-.53-.354-.885-.885-.885H1.885c-.531 0-.885.354-.885.885s.354.885.885.885zM18.08 35.779c0-.532-.354-.885-.885-.885H1.885c-.531 0-.885.354-.885.885 0 .53.354.884.885.884h15.31c.53 0 .885-.353.885-.884z" fill="#CC0514" stroke="#F9F9F9" stroke-width=".25"/><path d="M46.045 13.212l.885-.885c.442.266.885.354 1.416.354a2.984 2.984 0 003.008-3.008c0-1.682-1.239-3.01-2.92-3.01a2.984 2.984 0 00-3.009 3.01c0 .442.089.973.354 1.327l-.973.973C41.089 8.7 36.31 6.663 31 6.487V2.77h3.186c.531 0 .885-.354.885-.885S34.717 1 34.186 1h-8.053c-.53 0-.885.354-.885.885 0 .53.354.885.885.885h3.098v3.717c-5.841.265-11.24 2.655-15.31 6.99a.855.855 0 000 1.24.855.855 0 001.239 0c3.982-4.16 9.292-6.46 14.955-6.46 5.399 0 10.354 2.123 14.071 5.575a20.308 20.308 0 016.46 14.867c0 11.328-9.203 20.531-20.53 20.531-5.487 0-10.62-2.124-14.514-6.018a.856.856 0 00-1.239 0 .856.856 0 000 1.24C18.611 48.698 24.186 51 30.115 51c12.301 0 22.301-10 22.301-22.3 0-6.019-2.389-11.505-6.371-15.488zm2.389-4.778a1.21 1.21 0 011.239 1.239 1.21 1.21 0 01-1.239 1.239c-.265 0-.53-.089-.796-.266 0-.089-.089-.089-.089-.177 0 0-.088-.088-.177-.088-.177-.178-.177-.443-.177-.708a1.21 1.21 0 011.239-1.24z" fill="#CC0514" stroke="#F9F9F9" stroke-width=".25"/><path d="M19.407 42.858c-.265.443-.177.974.266 1.24a18.532 18.532 0 0010.53 3.274c10.266 0 18.585-8.319 18.585-18.584 0-10.266-8.319-18.584-18.584-18.584-3.894 0-7.7 1.239-10.885 3.54-.354.265-.443.884-.177 1.238.265.354.796.443 1.239.177 2.831-2.123 6.283-3.186 9.823-3.186 9.292 0 16.814 7.523 16.814 16.815 0 9.292-7.522 16.814-16.814 16.814-3.452 0-6.726-.974-9.47-2.92-.53-.266-1.061-.178-1.327.176z" fill="#CC0514" stroke="#F9F9F9" stroke-width=".25"/></svg>