<svg width="16" height="15" viewBox="0 0 16 15" fill="none" xmlns="http://www.w3.org/2000/svg"><path d="M5.626 14.92a.536.536 0 00.52.024l3.214-1.607a.536.536 0 00.284-.48V6.635L14.862.897A.536.536 0 0014.466 0H.536A.536.536 0 00.14.897l5.218 5.738v7.83a.536.536 0 00.268.455zm7.63-13.849L8.7 6.067l-.018.027a.356.356 0 00-.06.094.373.373 0 00-.04.1v.106a.07.07 0 01-.01.035v6.096L6.43 13.597v-7.31a.372.372 0 00-.038-.1l-.024-.045-.035-.045a.268.268 0 01-.02-.03L1.747 1.071h11.507z" fill="#CC0514"/></svg>