<svg width="21" height="20" viewBox="0 0 21 20" fill="none" xmlns="http://www.w3.org/2000/svg"><path d="M1.761 13.313h2.15v2.194l.134.135a.782.782 0 00.537.224c.18 0 .38-.067.515-.202l3-2.35h7.366a.755.755 0 00.76-.762V1.762a.755.755 0 00-.76-.762H1.76a.755.755 0 00-.76.761v10.791c0 .426.336.761.761.761zm.135-11.417h13.432v10.522H8.052a.71.71 0 00-.515.201l-2.731 2.127v-2.06l-.134-.134a.513.513 0 00-.359-.156c-.044 0-.112 0-.156.022H1.896V1.896z"/><path d="M19.716 4.134h-2.26a.45.45 0 00-.449.448.45.45 0 00.448.448h2.127v10.522h-2.284a.482.482 0 00-.514.135l-.112.134v2.06l-2.732-2.127a.71.71 0 00-.515-.202H8.254a.45.45 0 00-.448.448.45.45 0 00.448.448h5.127l3.022 2.35a.695.695 0 00.492.202h.023c.201 0 .38-.09.537-.224l.135-.134v-2.194h2.149a.755.755 0 00.76-.761V4.895a.789.789 0 00-.783-.76z"/></svg>