<svg width="57" height="57" viewBox="0 0 57 57" fill="none" xmlns="http://www.w3.org/2000/svg"><path d="M28.5 1C13.335 1 1 13.335 1 28.5 1 43.664 13.335 56 28.5 56 43.664 56 56 43.664 56 28.5 56 13.335 43.664 1 28.5 1zm0 52.609c-13.845 0-25.109-11.265-25.109-25.109 0-13.845 11.264-25.109 25.109-25.109 13.844 0 25.109 11.264 25.109 25.109 0 13.844-11.265 25.109-25.109 25.109z" fill="#CC0514" stroke="#F9F9F9"/><path d="M41.418 18.646L23.73 36.334 18 30.603a1.194 1.194 0 10-1.69 1.69l6.575 6.577a1.193 1.193 0 001.69 0L43.11 20.337a1.194 1.194 0 10-1.691-1.69z" fill="#CC0514" stroke="#F9F9F9"/></svg>