<svg width="20" height="25" viewBox="0 0 20 25" fill="none" xmlns="http://www.w3.org/2000/svg"><path d="M11.972 16c-.368-.316-.737-.71-1.158-1.132a6.778 6.778 0 01-.868-1.236c.5-1.711.737-3.343.21-4.132-.237-.369-.605-.553-1.079-.553-.526 0-.92.237-1.105.684-.421.948.21 2.685.974 4.106-.21.684-.474 1.42-.79 2.237a20.04 20.04 0 01-.605 1.315c-2.158.842-3.474 1.79-3.658 2.685-.079.42.053.79.421 1.078.21.158.448.264.71.264.106 0 .211-.027.316-.053 1-.263 2.08-1.737 2.869-3.237A14.947 14.947 0 019.84 17.5c.71-.21 1.342-.369 1.894-.474 1.027.816 1.895 1.263 2.658 1.263.58.027 1-.184 1.395-.579.579-.579.342-1.079.263-1.21-.474-.737-1.921-.895-4.079-.5zm-6.895 4.342a.261.261 0 01-.21-.026c-.105-.08-.105-.132-.08-.184.053-.316.659-.895 1.975-1.527-.632.947-1.264 1.632-1.685 1.737zM8.814 10c.027-.053.053-.132.263-.132.185 0 .264.08.316.132.237.342.21 1.21-.079 2.368-.447-1-.684-1.947-.5-2.368zm.737 6.579l-.79.237c.08-.184.158-.369.237-.527.185-.5.395-1 .58-1.526.21.29.394.553.578.737.237.263.474.5.71.737-.42.105-.868.21-1.315.342zm5.553.473c-.185.211-.421.29-.71.29-.396 0-.87-.184-1.422-.553 1.526-.21 2.395-.052 2.132.263z" fill="#CC0514"/><path d="M19.421 6.342L13.658.58A1.957 1.957 0 0012.29 0H1.947C1.421 0 .947.21.58.579A1.911 1.911 0 000 1.947v21.106C0 24.132.868 25 1.947 25h16.106A1.943 1.943 0 0020 23.053V7.71c0-.5-.21-1-.579-1.369zm-1.105.474h-4.263a.876.876 0 01-.869-.869V1.711l5.132 5.105zm-.263 17.052H1.947a.82.82 0 01-.815-.815V1.947c0-.21.079-.42.236-.579a.816.816 0 01.58-.236h10.105v4.815a2 2 0 002 2h4.815v15.106a.82.82 0 01-.815.815z" fill="#CC0514"/></svg>