<svg width="17" height="17" viewBox="0 0 17 17" fill="none" xmlns="http://www.w3.org/2000/svg"><path d="M3.864 0A3.875 3.875 0 000 3.864a3.875 3.875 0 003.864 3.863 3.875 3.875 0 003.863-3.863A3.875 3.875 0 003.864 0zm10.721 1.533a.773.773 0 00-.447.23L1.776 14.126a.773.773 0 101.087 1.1L15.224 2.861a.773.773 0 00-.64-1.329zm-10.721.012a2.307 2.307 0 012.318 2.319 2.307 2.307 0 01-2.318 2.318 2.307 2.307 0 01-2.319-2.318 2.307 2.307 0 012.319-2.319zm9.272 7.728a3.875 3.875 0 00-3.863 3.863A3.875 3.875 0 0013.136 17 3.875 3.875 0 0017 13.136a3.875 3.875 0 00-3.864-3.863zm0 1.545a2.307 2.307 0 012.319 2.318 2.306 2.306 0 01-2.319 2.319 2.307 2.307 0 01-2.318-2.319 2.307 2.307 0 012.318-2.318z"/></svg>