<svg width="40" height="52" viewBox="0 0 40 52" fill="none" xmlns="http://www.w3.org/2000/svg"><path d="M36.87 14.043h-5.435V11.87c0-6.087-5-10.87-11.413-10.87S8.609 5.783 8.609 11.87v2.174H3.174A2.18 2.18 0 001 16.216v32.61A2.18 2.18 0 003.174 51H36.87a2.18 2.18 0 002.174-2.174V16.217a2.18 2.18 0 00-2.174-2.173zM10.783 11.87c0-4.892 4.076-8.696 9.239-8.696 5.163 0 9.239 3.804 9.239 8.696v2.174H10.783V11.87zM36.87 48.826H3.174V16.217H36.87v32.61zM13.5 30.348A4.36 4.36 0 019.152 26a4.36 4.36 0 014.348-4.348A4.36 4.36 0 0117.848 26a4.36 4.36 0 01-4.348 4.348zm0-6.522A2.18 2.18 0 0011.326 26a2.18 2.18 0 002.174 2.174A2.18 2.18 0 0015.674 26a2.18 2.18 0 00-2.174-2.174zm13.044 19.565a4.36 4.36 0 01-4.348-4.347 4.36 4.36 0 014.348-4.348 4.36 4.36 0 014.347 4.348 4.36 4.36 0 01-4.347 4.347zm0-6.521a2.18 2.18 0 00-2.174 2.174 2.18 2.18 0 002.174 2.173 2.18 2.18 0 002.173-2.173 2.18 2.18 0 00-2.173-2.174zm-15.761 5.978c-.272 0-.544-.109-.761-.326a1.05 1.05 0 010-1.522L28.5 22.522a1.05 1.05 0 011.522 0 1.05 1.05 0 010 1.522L11.543 42.522a1.073 1.073 0 01-.76.326z" fill="#CC0514" stroke="#F9F9F9"/></svg>