<svg width="17" height="17" viewBox="0 0 17 17" fill="none" xmlns="http://www.w3.org/2000/svg"><path d="M12.824 16.993c.082.003.16.007.241.007.873 0 1.602-.315 2.174-.933l.014-.015c.205-.244.435-.466.68-.7.168-.159.338-.322.498-.492.762-.792.758-1.795-.007-2.558l-2.118-2.11c-.364-.378-.798-.578-1.26-.578-.456 0-.894.197-1.27.57l-1.252 1.248c-.111-.063-.226-.118-.338-.174a5.199 5.199 0 01-.386-.207c-1.148-.726-2.188-1.674-3.184-2.892-.501-.629-.832-1.155-1.066-1.695.327-.296.632-.604.925-.903l.327-.33c.795-.792.795-1.773 0-2.562L5.751 1.622l-.36-.363c-.235-.237-.476-.485-.718-.707C4.31.189 3.878 0 3.422 0 2.968 0 2.53.189 2.15.552L.832 1.862a2.736 2.736 0 00-.817 1.744c-.067.844.09 1.74.49 2.82.62 1.67 1.553 3.222 2.935 4.88A18.09 18.09 0 009.455 16c.88.419 2.058.907 3.369.993zm-8.682-6.268C2.827 9.148 1.947 7.682 1.363 6.112 1.003 5.146.87 4.394.925 3.68c.041-.463.22-.848.554-1.177L2.79 1.196c.2-.193.42-.293.635-.293.212 0 .42.1.62.296.235.219.461.448.699.69.119.121.242.247.368.37l1.051 1.047c.431.43.431.851 0 1.28-.111.112-.223.223-.33.334-.327.33-.632.64-.97.94l-.019.019c-.3.3-.256.589-.182.803l.011.03c.272.651.654 1.27 1.241 2.01 1.059 1.3 2.173 2.31 3.407 3.091.152.097.312.178.468.256.141.07.271.137.386.207l.041.022c.119.06.234.09.353.09.293 0 .48-.186.539-.249l1.319-1.314c.2-.2.415-.304.627-.304.26 0 .472.163.61.304l2.125 2.118c.52.518.282.984-.012 1.292-.148.159-.304.307-.468.466a9.64 9.64 0 00-.739.763c-.401.43-.877.629-1.497.629-.06 0-.123-.004-.182-.007-1.155-.074-2.225-.522-3.032-.904a17.062 17.062 0 01-5.717-4.457z" fill="#CC0514"/></svg>