<svg width="48" height="43" viewBox="0 0 48 43" fill="none" xmlns="http://www.w3.org/2000/svg"><path d="M25.267 0C15.063 0 6.478 6.921 4.124 16.293l-2.856-5.081a.672.672 0 10-1.176.65l3.696 6.594a.672.672 0 00.903.272l6.571-3.359a.67.67 0 00.152-1.126.67.67 0 00-.76-.07L5.361 16.86v-.021C7.488 7.953 15.592 1.344 25.267 1.344c11.299 0 20.429 9.021 20.429 20.156 0 11.135-9.13 20.156-20.43 20.156-9.667 0-17.75-6.64-19.883-15.516a.672.672 0 10-1.301.315C6.359 35.934 14.985 43 25.267 43c12.015 0 21.772-9.629 21.772-21.5C47.04 9.63 37.282 0 25.267 0zm.189 10.057a.672.672 0 00-.588.693V21.5a.673.673 0 00.252.525l6.718 5.375a.672.672 0 10.84-1.05l-6.466-5.165V10.75a.673.673 0 00-.756-.693z" fill="#CC0514"/></svg>