<svg width="35" height="35" viewBox="0 0 35 35" fill="none" xmlns="http://www.w3.org/2000/svg"><path d="M13.852 1c-.276.001-.387.197-.456.399l-.399 3.576a13.603 13.603 0 00-4.402 2.551L5.289 6.073a.472.472 0 00-.584.2l-3.648 6.325a.471.471 0 00.128.585l2.921 2.137c-.158.826-.285 1.674-.285 2.55 0 .876.127 1.711.285 2.537l-2.92 2.137a.472.472 0 00-.13.599l3.649 6.326a.47.47 0 00.584.185l3.306-1.453a13.603 13.603 0 004.402 2.55l.4 3.577a.47.47 0 00.455.413h7.296a.473.473 0 00.456-.413l.399-3.577a13.603 13.603 0 004.402-2.55l3.306 1.453a.472.472 0 00.584-.185l3.648-6.326a.472.472 0 00-.128-.599l-2.921-2.137c.158-.826.285-1.66.285-2.536 0-.877-.127-1.725-.285-2.551l2.92-2.137a.471.471 0 00.13-.585l-3.649-6.326a.472.472 0 00-.584-.2l-3.305 1.454a13.605 13.605 0 00-4.403-2.55l-.4-3.577A.472.472 0 0021.149 1h-7.296zm.413.912h6.47l.384 3.42c.02.174.147.33.314.384a12.776 12.776 0 014.63 2.665.467.467 0 00.485.085l3.149-1.382 3.249 5.614-2.793 2.038a.467.467 0 00-.171.456c.184.864.285 1.765.285 2.679 0 .913-.101 1.8-.285 2.664a.467.467 0 00.17.456l2.794 2.038-3.235 5.614-3.163-1.383a.467.467 0 00-.484.086 12.775 12.775 0 01-4.631 2.665.467.467 0 00-.314.384l-.384 3.434h-6.47l-.384-3.434a.467.467 0 00-.314-.384 12.775 12.775 0 01-4.63-2.665.467.467 0 00-.485-.085l-3.163 1.382-3.235-5.614 2.793-2.038a.467.467 0 00.171-.456 12.753 12.753 0 01-.285-2.664c0-.914.101-1.815.285-2.68a.467.467 0 00-.17-.455l-2.794-2.038 3.249-5.614 3.149 1.382c.16.067.357.032.485-.085a12.776 12.776 0 014.63-2.665.467.467 0 00.314-.384l.384-3.42zM17.5 9.663c-4.527 0-8.207 3.68-8.207 8.208 0 4.527 3.68 8.207 8.207 8.207 4.527 0 8.207-3.68 8.207-8.207 0-4.528-3.68-8.208-8.207-8.208zm0 .912a7.288 7.288 0 017.295 7.296 7.289 7.289 0 01-7.295 7.295 7.289 7.289 0 01-7.295-7.295 7.288 7.288 0 017.295-7.296z" fill="#CC0514" stroke="#CC0514" stroke-width=".5"/></svg>