<svg width="21" height="22" viewBox="0 0 21 22" fill="none" xmlns="http://www.w3.org/2000/svg"><path d="M8.675 1c-.265.001-.493.243-.526.46l-.214 1.925a8.103 8.103 0 00-2.336 1.34l-1.76-.773a.545.545 0 00-.666.222L1.068 7.826a.545.545 0 00.14.682l1.554 1.135A7.94 7.94 0 002.622 11c0 .466.065.908.14 1.349l-1.554 1.134a.545.545 0 00-.14.691l2.105 3.652c.13.22.433.317.667.213l1.76-.773a8.102 8.102 0 002.335 1.34l.214 1.925c.028.256.269.47.526.469h4.21a.544.544 0 00.527-.469l.214-1.924a8.103 8.103 0 002.335-1.34l1.76.773a.545.545 0 00.666-.214l2.105-3.652a.545.545 0 00-.14-.69l-1.554-1.135c.076-.441.14-.883.14-1.349a7.95 7.95 0 00-.14-1.357l1.555-1.135a.545.545 0 00.14-.682l-2.106-3.652a.545.545 0 00-.666-.222l-1.76.773a8.104 8.104 0 00-2.335-1.34l-.214-1.924A.545.545 0 0012.885 1h-4.21zm.477 1.053h3.257l.197 1.743a.539.539 0 00.362.436 7.11 7.11 0 012.574 1.488c.15.136.382.173.567.09l1.604-.706 1.636 2.837-1.422 1.036a.54.54 0 00-.206.534c.103.483.165.982.165 1.489 0 .507-.062.997-.165 1.48a.54.54 0 00.206.535l1.422 1.044-1.628 2.83-1.612-.708a.539.539 0 00-.567.09 7.112 7.112 0 01-2.574 1.489.539.539 0 00-.362.436l-.197 1.751H9.152l-.197-1.751a.538.538 0 00-.362-.436 7.111 7.111 0 01-2.574-1.489.54.54 0 00-.568-.09l-1.611.707-1.63-2.828 1.423-1.044a.539.539 0 00.206-.535A7.073 7.073 0 013.675 11c0-.507.062-1.006.165-1.489a.539.539 0 00-.206-.534L2.21 7.941l1.637-2.837 1.603.707a.54.54 0 00.568-.09 7.11 7.11 0 012.574-1.49.539.539 0 00.362-.435l.197-1.743zm1.628 4.21A4.745 4.745 0 006.043 11a4.745 4.745 0 004.737 4.737A4.745 4.745 0 0015.517 11a4.745 4.745 0 00-4.737-4.737zm0 1.053A3.676 3.676 0 0114.464 11a3.676 3.676 0 01-3.684 3.684A3.676 3.676 0 017.096 11a3.676 3.676 0 013.684-3.684z" fill="#BDBDBD" stroke="#BDBDBD" stroke-width=".3"/></svg>