<svg width="18" height="19" viewBox="0 0 18 19" fill="none" xmlns="http://www.w3.org/2000/svg"><path d="M10.631 16.335a6.861 6.861 0 01-7.893-8.028.598.598 0 00-.064-.4 3.854 3.854 0 01-.478-1.858A3.858 3.858 0 016.05 2.196.598.598 0 006.05 1 5.055 5.055 0 001 6.05c0 .778.182 1.55.527 2.244a8.118 8.118 0 00-.102 1.286c0 4.438 3.61 8.049 8.049 8.049.453 0 .91-.039 1.358-.115a.598.598 0 00-.2-1.179zM17.397 11a8.15 8.15 0 00.126-1.42c0-4.439-3.611-8.05-8.05-8.05-.417 0-.838.033-1.25.097a.598.598 0 10.185 1.181 6.861 6.861 0 017.781 8.146.598.598 0 00.044.371 3.858 3.858 0 01-3.494 5.48.598.598 0 000 1.195 5.055 5.055 0 004.658-7z" fill="#CC0514" stroke="#fff" stroke-width=".25"/><path d="M12.524 10.94c0-.358-.07-.663-.208-.908a1.758 1.758 0 00-.58-.613 3.778 3.778 0 00-.901-.41 12.572 12.572 0 00-1.184-.31c-.346-.08-.6-.142-.75-.184a2.449 2.449 0 01-.45-.174 1.063 1.063 0 01-.35-.266.562.562 0 01-.126-.37c0-.23.122-.423.373-.588.247-.162.577-.244.98-.244.442 0 .754.073.953.225.197.15.368.36.508.627.111.191.21.322.302.404.115.101.285.123.407.123a.657.657 0 00.492-.205.652.652 0 00.197-.46c0-.186-.053-.38-.158-.575a1.845 1.845 0 00-.502-.562 2.709 2.709 0 00-.862-.43 4.222 4.222 0 00-1.232-.16c-.593 0-1.115.081-1.552.243-.437.162-.777.396-1.008.698a1.67 1.67 0 00-.348 1.038c0 .407.11.752.33 1.027.219.274.52.493.892.652.375.16.845.3 1.397.418.411.086.746.169.997.247.246.076.451.19.608.336.156.147.236.34.236.574 0 .3-.143.543-.437.744-.29.198-.671.298-1.134.298-.337 0-.613-.05-.82-.148a1.283 1.283 0 01-.484-.375 2.816 2.816 0 01-.32-.567 1.139 1.139 0 00-.292-.43.63.63 0 00-.42-.145.698.698 0 00-.503.186.593.593 0 00-.198.446c0 .298.111.61.33.925.219.316.508.572.858.76.494.263 1.129.395 1.888.395.633 0 1.189-.097 1.652-.29.462-.191.818-.46 1.057-.8.24-.339.362-.727.362-1.153z" fill="#CC0514" stroke="#fff" stroke-width=".25"/></svg>