<svg width="20" height="19" viewBox="0 0 20 19" fill="none" xmlns="http://www.w3.org/2000/svg"><path d="M15.182 17.999a.404.404 0 00.37-.494l-1.317-5.742 4.437-3.865a.405.405 0 00-.231-.71l-5.861-.522-2.3-5.415a.405.405 0 00-.749 0l-2.3 5.415-5.861.522a.404.404 0 00-.23.71l4.436 3.865-1.317 5.742a.406.406 0 00.6.438l5.046-3.032 5.046 3.032c.07.041.15.061.23.056zm-.633-1.24l-4.437-2.665a.404.404 0 00-.413 0L5.262 16.76l1.158-5.05a.406.406 0 00-.128-.399L2.39 7.91l5.153-.455a.404.404 0 00.338-.247l2.025-4.762 2.026 4.762a.405.405 0 00.338.247l5.153.455-3.903 3.402a.405.405 0 00-.128.399l1.158 5.049z" fill="#BDBDBD" stroke="#BDBDBD" stroke-width=".5"/></svg>