<svg width="20" height="21" viewBox="0 0 20 21" fill="none" xmlns="http://www.w3.org/2000/svg"><path d="M2.695 20h14.487a1.72 1.72 0 001.425-.742 1.714 1.714 0 00.178-1.603c-1.484-3.622-4.957-5.968-8.847-5.968a9.476 9.476 0 00-8.817 5.968 1.714 1.714 0 00.178 1.603c.297.475.832.742 1.396.742zm-.475-1.9a8.282 8.282 0 017.718-5.225 8.282 8.282 0 017.72 5.225c.058.178.058.356-.06.505a.52.52 0 01-.416.207H2.695a.474.474 0 01-.416-.237.465.465 0 01-.06-.475zM5.188 5.75a4.764 4.764 0 004.75 4.75 4.764 4.764 0 004.75-4.75A4.764 4.764 0 009.938 1a4.764 4.764 0 00-4.75 4.75zm8.313 0a3.573 3.573 0 01-3.563 3.563A3.573 3.573 0 016.376 5.75a3.573 3.573 0 013.562-3.563 3.573 3.573 0 013.563 3.563z"/></svg>