<svg width="72" height="52" viewBox="0 0 72 52" fill="none" xmlns="http://www.w3.org/2000/svg"><path d="M58.42 32.613c2.338-1.936 3.87-5 3.87-8.226 0-5.564-4.516-10.484-9.677-10.484s-9.678 4.92-9.678 10.484c0 3.226 1.533 6.29 3.871 8.226-1.048.403-2.016.806-2.983 1.37-3.065-3.628-7.097-6.45-11.775-7.822 3.549-2.5 6.049-6.774 6.049-11.451C38.097 7.37 32.048 1 25.193 1 18.34 1 12.29 7.371 12.29 14.71c0 4.677 2.5 8.951 6.049 11.451C8.339 29.145 1 38.42 1 49.387 1 50.274 1.726 51 2.613 51h66.129c.887 0 1.613-.726 1.613-1.613 0-7.742-5-14.355-11.936-16.774zm-12.26-8.226c0-3.387 2.823-7.258 6.452-7.258s6.452 3.871 6.452 7.258-2.823 7.258-6.452 7.258c-3.63 0-6.452-3.87-6.452-7.258zM15.516 14.71c0-4.92 4.113-10.484 9.678-10.484 5.564 0 9.677 5.564 9.677 10.484 0 4.919-4.113 10.483-9.678 10.483-5.564 0-9.677-5.564-9.677-10.483zM4.306 47.774c.807-10.806 9.92-19.355 20.888-19.355 10.967 0 20.08 8.549 20.887 19.355H4.306zm45 0c-.241-4.032-1.532-7.903-3.629-11.129 2.097-1.129 4.436-1.774 6.936-1.774 7.42 0 13.629 5.645 14.435 12.903H49.306z" fill="#CC0514" stroke="#fff" stroke-width="2"/></svg>