<svg width="30" height="30" viewBox="0 0 30 30" fill="none" xmlns="http://www.w3.org/2000/svg"><path fill-rule="evenodd" clip-rule="evenodd" d="M15 0C6.724 0 0 6.724 0 15s6.724 15 15 15 15-6.724 15-15S23.276 0 15 0zm0 1.364c7.539 0 13.637 6.097 13.637 13.636 0 7.539-6.098 13.637-13.637 13.637-7.539 0-13.637-6.098-13.637-13.637C1.363 7.461 7.461 1.364 15 1.364z" fill="#CC0514"/><path fill-rule="evenodd" clip-rule="evenodd" d="M14.99 7.436a.682.682 0 00-.671.692V18.38a.68.68 0 001.167.49.681.681 0 00.196-.49V8.128a.68.68 0 00-.692-.692zm0 13.613a.682.682 0 00-.671.691v.133a.68.68 0 101.363 0v-.133a.682.682 0 00-.692-.691z" fill="#CC0514"/></svg>